<svg xmlns="http://www.w3.org/2000/svg" width="23" height="20.348" viewBox="0 0 23 20.348">
  <g id="warning" transform="translate(0 -29.517)">
    <g id="Group_1489" data-name="Group 1489" transform="translate(0 29.517)">
      <path id="Path_1594" data-name="Path 1594" d="M22.521,44.77,14.4,31.168a3.373,3.373,0,0,0-5.8,0L.479,44.77a3.372,3.372,0,0,0,2.9,5.095H19.621a3.373,3.373,0,0,0,2.9-5.095ZM11.5,33.676a1.349,1.349,0,0,1,1.349,1.349v5.4a1.349,1.349,0,1,1-2.7,0v-5.4h0A1.349,1.349,0,0,1,11.5,33.676Zm0,13.491a2.024,2.024,0,1,1,2.024-2.024A2.026,2.026,0,0,1,11.5,47.167Z" transform="translate(0 -29.517)" fill="#9caaff"/>
    </g>
  </g>
</svg>
