<svg xmlns="http://www.w3.org/2000/svg" width="31.098" height="20.5" viewBox="0 0 31.098 20.5">
  <g id="add_patient" data-name="add patient" transform="translate(-98.189 -96.25)">
    <g id="Group_1726" data-name="Group 1726" transform="translate(-95.685 -222.75)">
      <path id="procedures-solid" d="M21.139,8.92H10.89a.642.642,0,0,0-.641.641v5.765H2.562V5.717a.642.642,0,0,0-.641-.641H.641A.642.642,0,0,0,0,5.717V19.809a.642.642,0,0,0,.641.641H1.922a.642.642,0,0,0,.641-.641V17.888h20.5v1.922a.642.642,0,0,0,.641.641h1.281a.642.642,0,0,0,.641-.641V13.4A4.482,4.482,0,0,0,21.139,8.92ZM5.445,3.8h5.048l1.1,2.21a.64.64,0,0,0,1.145,0l1.99-3.979.885,1.77H20.5a.641.641,0,0,0,0-1.281H16.41L15.305.3A.64.64,0,0,0,14.16.3l-1.99,3.979-.8-1.593a.322.322,0,0,0-.288-.176H5.445a.321.321,0,0,0-.32.32v.641A.321.321,0,0,0,5.445,3.8Zm.961,10.249a2.562,2.562,0,1,0-2.562-2.562A2.565,2.565,0,0,0,6.406,14.044Z" transform="translate(193.873 319.05)" fill="#7886d8"/>
    </g>
    <path id="plus-solid" d="M7.694,35.255H5.031V32.592A.592.592,0,0,0,4.439,32H3.847a.592.592,0,0,0-.592.592v2.663H.592A.592.592,0,0,0,0,35.847v.592a.592.592,0,0,0,.592.592H3.255v2.663a.592.592,0,0,0,.592.592h.592a.592.592,0,0,0,.592-.592V37.031H7.694a.592.592,0,0,0,.592-.592v-.592A.592.592,0,0,0,7.694,35.255Z" transform="translate(121 66.964)" fill="#7886d8"/>
  </g>
</svg>
