<svg xmlns="http://www.w3.org/2000/svg" width="21.6" height="24.685" viewBox="0 0 21.6 24.685">
  <path id="hospital-solid" d="M21.6,23.721v.964H0v-.964a.579.579,0,0,1,.579-.579h.964V5.786A1.157,1.157,0,0,1,2.7,4.628H6.943V1.157A1.157,1.157,0,0,1,8.1,0h5.4a1.157,1.157,0,0,1,1.157,1.157V4.628H18.9a1.157,1.157,0,0,1,1.157,1.157V23.142h.964A.579.579,0,0,1,21.6,23.721ZM14.85,9.257H12.921a.579.579,0,0,0-.579.579v1.929a.579.579,0,0,0,.579.579H14.85a.579.579,0,0,0,.579-.579V9.836A.579.579,0,0,0,14.85,9.257Zm-8.1,3.086H8.678a.579.579,0,0,0,.579-.579V9.836a.579.579,0,0,0-.579-.579H6.75a.579.579,0,0,0-.579.579v1.929A.579.579,0,0,0,6.75,12.343Zm5.014,6.171H9.836a.579.579,0,0,0-.579.579v4.05h3.086v-4.05A.579.579,0,0,0,11.764,18.514Zm3.086-4.628H12.921a.579.579,0,0,0-.579.579v1.929a.579.579,0,0,0,.579.579H14.85a.579.579,0,0,0,.579-.579V14.464A.579.579,0,0,0,14.85,13.885Zm-5.593.579a.579.579,0,0,0-.579-.579H6.75a.579.579,0,0,0-.579.579v1.929a.579.579,0,0,0,.579.579H8.678a.579.579,0,0,0,.579-.579ZM8.775,4.628h1.254V5.882a.289.289,0,0,0,.289.289h.964a.289.289,0,0,0,.289-.289V4.628h1.254a.289.289,0,0,0,.289-.289V3.375a.289.289,0,0,0-.289-.289H11.571V1.832a.289.289,0,0,0-.289-.289h-.964a.289.289,0,0,0-.289.289V3.086H8.775a.289.289,0,0,0-.289.289v.964A.289.289,0,0,0,8.775,4.628Z" fill="#7886d8"/>
</svg>
