<svg xmlns="http://www.w3.org/2000/svg" width="23.255" height="20.5" viewBox="0 0 23.255 20.5">
  <g id="add_doctor" data-name="add doctor" transform="translate(-102.031 -96.25)">
    <path id="user-md-solid" d="M8.969,10.25A5.125,5.125,0,1,0,3.844,5.125,5.125,5.125,0,0,0,8.969,10.25Zm-4.8,6.727a.961.961,0,1,0,.961-.961A.959.959,0,0,0,4.164,16.977Zm8.648-5.421v1.962a3.208,3.208,0,0,1,2.563,3.139v1.67a.643.643,0,0,1-.517.629l-1.289.256a.319.319,0,0,1-.376-.252l-.124-.629a.317.317,0,0,1,.252-.376l.773-.156V16.656a1.922,1.922,0,1,0-3.844.076V17.8l.773.156a.325.325,0,0,1,.252.376l-.124.629a.325.325,0,0,1-.376.252l-1.249-.168a.64.64,0,0,1-.553-.637V16.656a3.211,3.211,0,0,1,2.563-3.139v-1.81c-.088.028-.176.044-.264.076a6.927,6.927,0,0,1-4.6,0,4.425,4.425,0,0,0-.9-.208v3.267a2.242,2.242,0,1,1-1.281,0V11.623A5.367,5.367,0,0,0,0,16.913v1.794A1.8,1.8,0,0,0,1.794,20.5h14.35a1.8,1.8,0,0,0,1.794-1.794V16.913a5.373,5.373,0,0,0-5.125-5.357Z" transform="translate(102.031 96.25)" fill="#7886d8"/>
    <path id="plus-solid" d="M7.694,35.255H5.031V32.592A.592.592,0,0,0,4.439,32H3.847a.592.592,0,0,0-.592.592v2.663H.592A.592.592,0,0,0,0,35.847v.592a.592.592,0,0,0,.592.592H3.255v2.663a.592.592,0,0,0,.592.592h.592a.592.592,0,0,0,.592-.592V37.031H7.694a.592.592,0,0,0,.592-.592v-.592A.592.592,0,0,0,7.694,35.255Z" transform="translate(117 68.964)" fill="#7886d8"/>
  </g>
</svg>
