<svg xmlns="http://www.w3.org/2000/svg" width="23.548" height="20.5" viewBox="0 0 23.548 20.5">
  <g id="Add_user" data-name="Add user" transform="translate(-101.738 -96.25)">
    <path id="user-solid" d="M8.969,10.25A5.125,5.125,0,1,0,3.844,5.125,5.125,5.125,0,0,0,8.969,10.25Zm3.588,1.281h-.669a6.97,6.97,0,0,1-5.838,0H5.381A5.383,5.383,0,0,0,0,16.913v1.666A1.922,1.922,0,0,0,1.922,20.5H16.016a1.922,1.922,0,0,0,1.922-1.922V16.913A5.383,5.383,0,0,0,12.556,11.531Z" transform="translate(101.738 96.25)" fill="#7886d8"/>
    <path id="plus-solid" d="M7.694,35.255H5.031V32.592A.592.592,0,0,0,4.439,32H3.847a.592.592,0,0,0-.592.592v2.663H.592A.592.592,0,0,0,0,35.847v.592a.592.592,0,0,0,.592.592H3.255v2.663a.592.592,0,0,0,.592.592h.592a.592.592,0,0,0,.592-.592V37.031H7.694a.592.592,0,0,0,.592-.592v-.592A.592.592,0,0,0,7.694,35.255Z" transform="translate(117 68.964)" fill="#7886d8"/>
  </g>
</svg>
