<svg xmlns="http://www.w3.org/2000/svg" width="29.099" height="22.837" viewBox="0 0 29.099 22.837">
  <g id="add_organization" data-name="add organization" transform="translate(-98.188 -93.964)">
    <path id="city-solid" d="M24.664,7.688H19.219V.961A.961.961,0,0,0,18.258,0H12.492a.961.961,0,0,0-.961.961V3.844H8.969V.641A.64.64,0,0,0,8.328,0H7.688a.64.64,0,0,0-.641.641v3.2H4.484V.641A.64.64,0,0,0,3.844,0H3.2a.64.64,0,0,0-.641.641v3.2H.961A.961.961,0,0,0,0,4.8V19.219A1.281,1.281,0,0,0,1.281,20.5H24.344a1.281,1.281,0,0,0,1.281-1.281V8.648A.961.961,0,0,0,24.664,7.688ZM5.125,16.176a.48.48,0,0,1-.48.48h-1.6a.48.48,0,0,1-.48-.48v-1.6a.48.48,0,0,1,.48-.48h1.6a.48.48,0,0,1,.48.48Zm0-3.844a.48.48,0,0,1-.48.48h-1.6a.48.48,0,0,1-.48-.48v-1.6a.48.48,0,0,1,.48-.48h1.6a.48.48,0,0,1,.48.48Zm0-3.844a.48.48,0,0,1-.48.48h-1.6a.48.48,0,0,1-.48-.48v-1.6a.48.48,0,0,1,.48-.48h1.6a.48.48,0,0,1,.48.48Zm5.125,7.688a.48.48,0,0,1-.48.48h-1.6a.48.48,0,0,1-.48-.48v-1.6a.48.48,0,0,1,.48-.48h1.6a.48.48,0,0,1,.48.48Zm0-3.844a.48.48,0,0,1-.48.48h-1.6a.48.48,0,0,1-.48-.48v-1.6a.48.48,0,0,1,.48-.48h1.6a.48.48,0,0,1,.48.48Zm0-3.844a.48.48,0,0,1-.48.48h-1.6a.48.48,0,0,1-.48-.48v-1.6a.48.48,0,0,1,.48-.48h1.6a.48.48,0,0,1,.48.48Zm6.406,3.844a.48.48,0,0,1-.48.48h-1.6a.48.48,0,0,1-.48-.48v-1.6a.48.48,0,0,1,.48-.48h1.6a.48.48,0,0,1,.48.48Zm0-3.844a.48.48,0,0,1-.48.48h-1.6a.48.48,0,0,1-.48-.48v-1.6a.48.48,0,0,1,.48-.48h1.6a.48.48,0,0,1,.48.48Zm0-3.844a.48.48,0,0,1-.48.48h-1.6a.48.48,0,0,1-.48-.48v-1.6a.48.48,0,0,1,.48-.48h1.6a.48.48,0,0,1,.48.48Zm6.406,11.531a.48.48,0,0,1-.48.48h-1.6a.48.48,0,0,1-.48-.48v-1.6a.48.48,0,0,1,.48-.48h1.6a.48.48,0,0,1,.48.48Zm0-3.844a.48.48,0,0,1-.48.48h-1.6a.48.48,0,0,1-.48-.48v-1.6a.48.48,0,0,1,.48-.48h1.6a.48.48,0,0,1,.48.48Z" transform="translate(98.188 96.3)" fill="#7886d8"/>
    <path id="plus-solid" d="M7.694,35.255H5.031V32.592A.592.592,0,0,0,4.439,32H3.847a.592.592,0,0,0-.592.592v2.663H.592A.592.592,0,0,0,0,35.847v.592a.592.592,0,0,0,.592.592H3.255v2.663a.592.592,0,0,0,.592.592h.592a.592.592,0,0,0,.592-.592V37.031H7.694a.592.592,0,0,0,.592-.592v-.592A.592.592,0,0,0,7.694,35.255Z" transform="translate(119 61.964)" fill="#7886d8"/>
  </g>
</svg>
