<svg xmlns="http://www.w3.org/2000/svg" width="15.412" height="20.55" viewBox="0 0 15.412 20.55">
  <path id="Appointment_report" data-name="Appointment report" d="M8.991,5.459V0H.963A.961.961,0,0,0,0,.963V19.587a.961.961,0,0,0,.963.963H14.449a.961.961,0,0,0,.963-.963V6.422H9.954A.966.966,0,0,1,8.991,5.459ZM2.569,2.89a.321.321,0,0,1,.321-.321H6.1a.321.321,0,0,1,.321.321v.642a.321.321,0,0,1-.321.321H2.89a.321.321,0,0,1-.321-.321Zm0,2.569a.321.321,0,0,1,.321-.321H6.1a.321.321,0,0,1,.321.321V6.1a.321.321,0,0,1-.321.321H2.89A.321.321,0,0,1,2.569,6.1Zm7.739,9.954H12.2a.642.642,0,1,1,0,1.284H10.308a1.726,1.726,0,0,1-1.551-.958.445.445,0,0,0-.408-.262.438.438,0,0,0-.4.248l-.308.616a.642.642,0,0,1-.574.355l-.046,0a.64.64,0,0,1-.563-.437L5.78,14.232l-.426,1.28A1.733,1.733,0,0,1,3.708,16.7h-.5a.642.642,0,0,1,0-1.284h.5a.45.45,0,0,0,.427-.307l.73-2.193a.964.964,0,0,1,1.828,0l.557,1.671a1.8,1.8,0,0,1,2.649.568A.458.458,0,0,0,10.308,15.412Zm4.824-11.2L11.2.281A.963.963,0,0,0,10.52,0h-.245V5.138h5.137V4.893A.96.96,0,0,0,15.132,4.214Z" fill="#7886d8"/>
</svg>
