<svg xmlns="http://www.w3.org/2000/svg" width="56" height="56" viewBox="0 0 56 56">
  <g id="camera_icon" data-name="camera icon" transform="translate(0)">
    <path id="Path_706" data-name="Path 706" d="M44.333,9.333H43.148l-5.1-6.608A7.054,7.054,0,0,0,32.508,0H23.492a7.054,7.054,0,0,0-5.544,2.725l-5.1,6.608H11.667A11.681,11.681,0,0,0,0,21V44.333A11.681,11.681,0,0,0,11.667,56H44.333A11.681,11.681,0,0,0,56,44.333V21A11.681,11.681,0,0,0,44.333,9.333ZM21.644,5.577a2.347,2.347,0,0,1,1.848-.91h9.016a2.352,2.352,0,0,1,1.848.91l2.9,3.757H18.746ZM51.333,44.333a7,7,0,0,1-7,7H11.667a7,7,0,0,1-7-7V21a7,7,0,0,1,7-7H44.333a7,7,0,0,1,7,7Z" transform="translate(0 0)" fill="#fff"/>
    <path id="Path_707" data-name="Path 707" d="M20,8A14,14,0,1,0,34,22,14,14,0,0,0,20,8Zm0,23.333A9.333,9.333,0,1,1,29.333,22,9.333,9.333,0,0,1,20,31.333Z" transform="translate(8 10.667)" fill="#fff"/>
  </g>
</svg>
