<svg xmlns="http://www.w3.org/2000/svg" width="91" height="94" viewBox="0 0 91 94">
  <g id="Medical_Report_icon" data-name="Medical Report icon" transform="translate(-8.5)">
    <g id="Group_1030" data-name="Group 1030" transform="translate(30.071 47.633)">
      <g id="Group_1027" data-name="Group 1027">
        <path id="Path_1158" data-name="Path 1158" d="M127.436,264.547a1.385,1.385,0,0,1-1.385-1.385v-2.216a1.385,1.385,0,0,1,2.77,0v2.216A1.385,1.385,0,0,1,127.436,264.547Z" transform="translate(-126.051 -259.56)" fill="#a0a7d1"/>
      </g>
      <g id="Group_1028" data-name="Group 1028" transform="translate(23.068)">
        <path id="Path_1159" data-name="Path 1159" d="M252.334,264.547a1.385,1.385,0,0,1-1.385-1.385v-2.216a1.385,1.385,0,0,1,2.77,0v2.216A1.385,1.385,0,0,1,252.334,264.547Z" transform="translate(-250.949 -259.56)" fill="#a0a7d1"/>
      </g>
      <g id="Group_1029" data-name="Group 1029" transform="translate(8.493 2.15)">
        <path id="Path_1160" data-name="Path 1160" d="M176.462,275.359a5.418,5.418,0,0,1-4.085-1.86,1.385,1.385,0,1,1,2.089-1.82,2.645,2.645,0,0,0,3.993,0,1.385,1.385,0,0,1,2.089,1.82A5.419,5.419,0,0,1,176.462,275.359Z" transform="translate(-172.035 -271.203)" fill="#a0a7d1"/>
      </g>
    </g>
    <g id="Group_1031" data-name="Group 1031" transform="translate(8.5)">
      <path id="Path_1161" data-name="Path 1161" d="M69.885,359.77H92.049a1.385,1.385,0,1,0,0-2.77H69.885a1.385,1.385,0,0,0,0,2.77Z" transform="translate(-57.418 -291.469)" fill="#a0a7d1"/>
      <path id="Path_1162" data-name="Path 1162" d="M92.049,397H69.885a1.385,1.385,0,0,0,0,2.77H92.049a1.385,1.385,0,1,0,0-2.77Z" transform="translate(-57.418 -324.126)" fill="#a0a7d1"/>
      <path id="Path_1163" data-name="Path 1163" d="M84.661,437H69.885a1.385,1.385,0,0,0,0,2.77H84.661a1.385,1.385,0,0,0,0-2.77Z" transform="translate(-57.418 -356.852)" fill="#a0a7d1"/>
      <path id="Path_1164" data-name="Path 1164" d="M87.091,0H20.909A12.415,12.415,0,0,0,8.5,12.393V81.607A12.415,12.415,0,0,0,20.909,94H87.091A12.415,12.415,0,0,0,99.5,81.607V12.393A12.415,12.415,0,0,0,87.091,0ZM11.258,81.607V12.393a9.656,9.656,0,0,1,9.652-9.639H65.03a9.656,9.656,0,0,1,9.652,9.639V69.215H65.03A12.415,12.415,0,0,0,52.621,81.607v9.639H20.909A9.656,9.656,0,0,1,11.258,81.607Zm63.379-9.639A20.7,20.7,0,0,1,55.379,91.2V81.607a9.656,9.656,0,0,1,9.652-9.639Zm2.8-1.377v-58.2a12.366,12.366,0,0,0-4.622-9.639h3.243a9.656,9.656,0,0,1,9.652,9.639V81.607a9.656,9.656,0,0,1-9.652,9.639H65.02A23.425,23.425,0,0,0,77.439,70.592Zm19.3,11.016a9.656,9.656,0,0,1-9.652,9.639H83.848a12.366,12.366,0,0,0,4.622-9.639V12.393a12.366,12.366,0,0,0-4.622-9.639h3.243a9.656,9.656,0,0,1,9.652,9.639Z" transform="translate(-8.5)" fill="#a0a7d1"/>
      <path id="Path_1165" data-name="Path 1165" d="M116.508,76.016A18.008,18.008,0,1,0,98.5,58.008,18.028,18.028,0,0,0,116.508,76.016Zm0-33.246A15.238,15.238,0,1,1,101.27,58.008,15.255,15.255,0,0,1,116.508,42.77Z" transform="translate(-82.005 -32.612)" fill="#a0a7d1"/>
      <path id="Path_1166" data-name="Path 1166" d="M143.579,95.7h.462v.462a5.079,5.079,0,1,0,10.158,0V95.7h.462a5.079,5.079,0,0,0,0-10.158H154.2v-.462a5.079,5.079,0,1,0-10.158,0v.462h-.462a5.079,5.079,0,0,0,0,10.158Zm0-7.388h1.847a1.385,1.385,0,0,0,1.385-1.385V85.079a2.309,2.309,0,0,1,4.617,0v1.847a1.385,1.385,0,0,0,1.385,1.385h1.847a2.309,2.309,0,1,1,0,4.617h-1.847a1.385,1.385,0,0,0-1.385,1.385v1.847a2.309,2.309,0,1,1-4.617,0V94.314a1.385,1.385,0,0,0-1.385-1.385h-1.847a2.309,2.309,0,1,1,0-4.617Z" transform="translate(-114.635 -65.338)" fill="#a0a7d1"/>
    </g>
  </g>
</svg>
