<svg id="follower" xmlns="http://www.w3.org/2000/svg" width="23" height="23" viewBox="0 0 23 23">
  <path id="Path_1589" data-name="Path 1589" d="M266.176,45a11.58,11.58,0,0,0-2.243-2.963h1.21V40.691H261.59v3.552h1.348V42.952A10.152,10.152,0,0,1,256,60.515v1.348A11.5,11.5,0,0,0,266.176,45Z" transform="translate(-244.5 -38.863)" fill="#9caaff"/>
  <path id="Path_1590" data-name="Path 1590" d="M4.562,18.911A10.152,10.152,0,0,1,11.5,1.348V0A11.5,11.5,0,0,0,1.324,16.861a11.582,11.582,0,0,0,2.243,2.963H2.357v1.348H5.91V17.62H4.562Z" fill="#9caaff"/>
  <circle id="Ellipse_65" data-name="Ellipse 65" cx="0.674" cy="0.674" r="0.674" transform="translate(10.826 8.953)" fill="#9caaff"/>
  <path id="Path_1591" data-name="Path 1591" d="M224.69,259.3a1.474,1.474,0,0,0-1.473,1.473v.207h2.945v-.207A1.474,1.474,0,0,0,224.69,259.3Z" transform="translate(-213.19 -247.656)" fill="#9caaff"/>
  <path id="Path_1592" data-name="Path 1592" d="M116.469,109.583a6.887,6.887,0,1,0-6.887,6.887A6.895,6.895,0,0,0,116.469,109.583Zm-9.707,1.621a2.819,2.819,0,0,1,1.19-2.3,2.021,2.021,0,1,1,3.261,0,2.819,2.819,0,0,1,1.19,2.3v1.555h-5.641Z" transform="translate(-98.083 -98.083)" fill="#9caaff"/>
</svg>
