<svg xmlns="http://www.w3.org/2000/svg" width="21.359" height="21.68" viewBox="0 0 21.359 21.68">
  <g id="patient" transform="translate(0 0.32)">
    <path id="Path_1587" data-name="Path 1587" d="M13.895,23.12a.89.89,0,0,1-.74-.4L11.639,20.45H9.89a.89.89,0,0,1,0-1.78h2.225a.891.891,0,0,1,.74.4l.929,1.394,1.984-3.968A.891.891,0,0,1,16.53,16a.878.878,0,0,1,.8.431l2.411,4.019H21.46a.89.89,0,1,1,0,1.78H19.235a.889.889,0,0,1-.763-.432l-1.836-3.06-1.945,3.89a.891.891,0,0,1-.741.49Z" transform="translate(-0.99 -1.76)" fill="#9caaff"/>
    <circle id="Ellipse_64" data-name="Ellipse 64" cx="4.5" cy="4.5" r="4.5" transform="translate(3.68 -0.32)" fill="#9caaff"/>
    <path id="Path_1588" data-name="Path 1588" d="M6.23,19.12A2.673,2.673,0,0,1,8.9,16.45h2.225a2.668,2.668,0,0,1,1.3.336l.764-1.53a2.655,2.655,0,0,1,1.97-1.419A4.436,4.436,0,0,0,11.57,12H4.45A4.45,4.45,0,0,0,0,16.45v2.892a.668.668,0,0,0,.667.667H6.394A2.64,2.64,0,0,1,6.23,19.12Z" transform="translate(0 -1.32)" fill="#9caaff"/>
  </g>
</svg>
