<svg xmlns="http://www.w3.org/2000/svg" width="10.583" height="14.11" viewBox="0 0 10.583 14.11">
  <g id="Prescription_Module_Invisible_" data-name="Prescription Module (Invisible)" transform="translate(-303.709 -724.945)">
    <g id="prescription" transform="translate(239.709 724.945)">
      <g id="Group_1004" data-name="Group 1004" transform="translate(64)">
        <path id="Path_646" data-name="Path 646" d="M74.5,3.025,71.557.086A.293.293,0,0,0,71.349,0H65.176A1.177,1.177,0,0,0,64,1.176V12.935a1.177,1.177,0,0,0,1.176,1.176h8.231a1.177,1.177,0,0,0,1.176-1.176v-9.7A.293.293,0,0,0,74.5,3.025Zm-7.851,9.321a.882.882,0,1,1,.882-.882A.883.883,0,0,1,66.646,12.347Zm0-2.94a.882.882,0,1,1,.882-.882A.883.883,0,0,1,66.646,9.407Zm1.764-2.94H67.234a.294.294,0,0,1-.294-.294V5.291h-.882A.294.294,0,0,1,65.764,5V3.822a.294.294,0,0,1,.294-.294h.882V2.646a.294.294,0,0,1,.294-.294H68.41a.294.294,0,0,1,.294.294v.882h.882a.294.294,0,0,1,.294.294V5a.294.294,0,0,1-.294.294H68.7v.882A.294.294,0,0,1,68.41,6.467Zm4.116,5.291H69a.294.294,0,0,1,0-.588h3.528a.294.294,0,1,1,0,.588Zm0-2.94H69a.294.294,0,0,1,0-.588h3.528a.294.294,0,1,1,0,.588ZM72.231,2.94a.589.589,0,0,1-.588-.588V1L73.579,2.94Z" transform="translate(-64)" fill="#84ba9e"/>
      </g>
    </g>
    <rect id="Rectangle_1601" data-name="Rectangle 1601" width="9" height="3" transform="translate(305 732)" fill="#84ba9e"/>
  </g>
</svg>
