<svg xmlns="http://www.w3.org/2000/svg" width="77.563" height="94.131" viewBox="0 0 77.563 94.131">
  <g id="rx" transform="translate(-59.881)" opacity="0.25">
    <g id="Group_1026" data-name="Group 1026" transform="translate(58.881 10.821)">
      <path id="Path_1155" data-name="Path 1155" d="M78.973,0C73.2,0,68.5,4.2,68.5,9.362V61.65c0,5.162,4.7,9.362,10.473,9.362v-2.08c-4.491,0-8.145-3.266-8.145-7.281V9.362c0-4.015,3.654-7.281,8.145-7.281Z" transform="translate(-67.5 0)" fill="rgba(53,66,145,0.69)"/>
    </g>
    <g id="Group_1024" data-name="Group 1024" transform="translate(89.959 47.577)">
      <g id="Group_1021" data-name="Group 1021">
        <path id="Path_1149" data-name="Path 1149" d="M186.6,263.724h0a1.379,1.379,0,0,1-1.378-1.38l0-2.183a1.379,1.379,0,0,1,1.379-1.378h0a1.379,1.379,0,0,1,1.378,1.38l0,2.183A1.379,1.379,0,0,1,186.6,263.724Z" transform="translate(-185.219 -258.783)" fill="#354291"/>
      </g>
      <g id="Group_1022" data-name="Group 1022" transform="translate(23.276 0.023)">
        <path id="Path_1150" data-name="Path 1150" d="M313.2,263.847h0a1.379,1.379,0,0,1-1.378-1.38l0-2.183a1.379,1.379,0,0,1,1.379-1.378h0a1.379,1.379,0,0,1,1.378,1.38l0,2.183A1.379,1.379,0,0,1,313.2,263.847Z" transform="translate(-311.821 -258.906)" fill="#354291"/>
      </g>
      <g id="Group_1023" data-name="Group 1023" transform="translate(8.569 3.161)">
        <path id="Path_1151" data-name="Path 1151" d="M239.341,278.742h0l-6.136-.005a1.379,1.379,0,0,1,0-2.758h0l6.137.005a1.379,1.379,0,0,1,0,2.758Z" transform="translate(-231.826 -275.979)" fill="#354291"/>
      </g>
    </g>
    <g id="Group_1025" data-name="Group 1025" transform="translate(68.5 0)">
      <path id="Path_1152" data-name="Path 1152" d="M151.941,357H129.879a1.379,1.379,0,1,0,0,2.758h22.062a1.379,1.379,0,1,0,0-2.758Z" transform="translate(-117.469 -291.366)" fill="#354291"/>
      <path id="Path_1153" data-name="Path 1153" d="M153.32,398.379A1.379,1.379,0,0,0,151.941,397H129.879a1.379,1.379,0,1,0,0,2.758h22.062A1.379,1.379,0,0,0,153.32,398.379Z" transform="translate(-117.469 -324.012)" fill="#354291"/>
      <path id="Path_1154" data-name="Path 1154" d="M129.879,437a1.379,1.379,0,1,0,0,2.758h14.708a1.379,1.379,0,1,0,0-2.758Z" transform="translate(-117.469 -356.658)" fill="#354291"/>
      <path id="Path_1155-2" data-name="Path 1155" d="M136.065,50.741a1.379,1.379,0,0,0,1.379-1.379V12.41A12.424,12.424,0,0,0,125.034,0H80.91A12.424,12.424,0,0,0,68.5,12.41V81.721a12.424,12.424,0,0,0,12.41,12.41H114A23.467,23.467,0,0,0,137.444,70.69V54.878a1.379,1.379,0,0,0-2.758,0V69.311h-9.652a12.424,12.424,0,0,0-12.41,12.41v9.652H80.91a9.663,9.663,0,0,1-9.652-9.652V12.41A9.663,9.663,0,0,1,80.91,2.758h44.124a9.663,9.663,0,0,1,9.652,9.652V49.362a1.379,1.379,0,0,0,1.379,1.379Zm-20.683,30.98a9.663,9.663,0,0,1,9.652-9.652h9.607a20.717,20.717,0,0,1-19.259,19.259Z" transform="translate(-68.5 0)" fill="#354291"/>
      <path id="Path_1156" data-name="Path 1156" d="M194.351,57.925a17.927,17.927,0,0,0-28.313-14.611,1.379,1.379,0,0,0,1.6,2.246,15.165,15.165,0,1,1-3.577,3.577,1.379,1.379,0,0,0-2.246-1.6,17.926,17.926,0,1,0,32.536,10.387Z" transform="translate(-141.954 -32.646)" fill="#354291"/>
      <path id="Path_1157" data-name="Path 1157" d="M232.182,86.167A6.174,6.174,0,0,0,226.014,80h-4.962c-.032,0-.063,0-.095,0s-.063,0-.095,0a1.379,1.379,0,0,0-1.379,1.379V99.764a1.379,1.379,0,1,0,2.758,0V92.335h2.771l3.552,4.035-2.185,2.483a1.379,1.379,0,1,0,2.07,1.822l1.952-2.218,1.952,2.218a1.379,1.379,0,1,0,2.07-1.822l-2.185-2.483,2.185-2.483a1.379,1.379,0,1,0-2.07-1.822L230.4,94.283l-2.1-2.389a6.176,6.176,0,0,0,3.883-5.727Zm-6.167,3.41h-3.773V82.758h3.773a3.41,3.41,0,1,1,0,6.819Z" transform="translate(-191.726 -65.292)" fill="#354291"/>
    </g>
  </g>
</svg>
