<svg xmlns="http://www.w3.org/2000/svg" width="13.5" height="18" viewBox="0 0 13.5 18">
  <path id="Prescription" d="M7.875,4.781V0H.844A.842.842,0,0,0,0,.844V17.156A.842.842,0,0,0,.844,18H12.656a.842.842,0,0,0,.844-.844V5.625H8.719A.846.846,0,0,1,7.875,4.781Zm2.409,6.31.4.4a.563.563,0,0,1,0,.8L9.631,13.335l1.057,1.057a.563.563,0,0,1,0,.8l-.4.4a.563.563,0,0,1-.8,0L8.438,14.528,7.381,15.585a.563.563,0,0,1-.8,0l-.4-.4a.563.563,0,0,1,0-.8l1.057-1.057L5.159,11.25H4.5v1.688a.562.562,0,0,1-.562.563H3.375a.562.562,0,0,1-.562-.562V7.313a.562.562,0,0,1,.563-.562H6.188a2.243,2.243,0,0,1,1.074,4.216l1.176,1.176,1.051-1.051A.563.563,0,0,1,10.284,11.091Zm-4.1-1.529H4.5V8.438H6.188a.563.563,0,0,1,0,1.125ZM13.5,4.286V4.5H9V0h.214a.843.843,0,0,1,.6.246l3.442,3.445A.841.841,0,0,1,13.5,4.286Z" fill="#333"/>
</svg>
