<svg xmlns="http://www.w3.org/2000/svg" width="23.471" height="17.886" viewBox="0 0 23.471 17.886">
  <path id="sign-out-alt-solid" d="M23.146,73.713l-7.824,7.824a1.12,1.12,0,0,1-1.909-.792V76.274H7.079a1.115,1.115,0,0,1-1.118-1.118V70.686a1.115,1.115,0,0,1,1.118-1.118h6.334V65.1a1.12,1.12,0,0,1,1.909-.792l7.824,7.824A1.127,1.127,0,0,1,23.146,73.713ZM8.942,81.3V79.441a.56.56,0,0,0-.559-.559H4.471a1.489,1.489,0,0,1-1.49-1.49V68.451a1.489,1.489,0,0,1,1.49-1.49H8.383a.56.56,0,0,0,.559-.559V64.539a.56.56,0,0,0-.559-.559H4.471A4.472,4.472,0,0,0,0,68.451v8.942a4.472,4.472,0,0,0,4.471,4.471H8.383A.56.56,0,0,0,8.942,81.3Z" transform="translate(0 -63.979)" fill="#333"/>
</svg>
