<svg id="support" xmlns="http://www.w3.org/2000/svg" width="21.388" height="23.886" viewBox="0 0 21.388 23.886">
  <path id="Path_650" data-name="Path 650" d="M83.238,8.8v.4a4.447,4.447,0,0,1,1.405.165V8.8a8.8,8.8,0,0,0-17.607,0v.57a4.5,4.5,0,0,1,1.405-.165V8.8a7.4,7.4,0,1,1,14.8,0Z" transform="translate(-65.145)" fill="#6374df"/>
  <path id="Path_651" data-name="Path 651" d="M207.311,386.739a3.216,3.216,0,0,1-3.213,3.287H202.46A1.624,1.624,0,0,0,201,389.1H198.83a1.624,1.624,0,0,0,0,3.248H201a1.624,1.624,0,0,0,1.465-.922H204.1a4.63,4.63,0,0,0,4.619-4.859,4.363,4.363,0,0,1-1.405.167Z" transform="translate(-189.219 -368.467)" fill="#6374df"/>
  <path id="Path_652" data-name="Path 652" d="M29.8,226.493a3.133,3.133,0,0,0-.063,6.265.709.709,0,0,0,.765-.7V227.2A.7.7,0,0,0,29.8,226.493Z" transform="translate(-26.667 -215.885)" fill="#6374df"/>
  <path id="Path_653" data-name="Path 653" d="M402.165,226.493a.7.7,0,0,0-.69.705v4.856a.708.708,0,0,0,.764.7,3.133,3.133,0,0,0-.075-6.265Z" transform="translate(-383.92 -215.885)" fill="#6374df"/>
  <path id="Path_654" data-name="Path 654" d="M179.969,230.113a1.909,1.909,0,0,0-2.7-2.7l-.589.589-.589-.589a1.909,1.909,0,0,0-2.7,2.7l2.958,2.958a.468.468,0,0,0,.662,0Z" transform="translate(-165.985 -216.228)" fill="#6374df"/>
</svg>
