<svg xmlns="http://www.w3.org/2000/svg" width="38" height="35.132" viewBox="0 0 38 35.132">
  <g id="swap" transform="translate(0 -19.32)">
    <path id="Path_1300" data-name="Path 1300" d="M6.879,35.252a1.119,1.119,0,0,0,1.679,0l1.536-1.676a1.382,1.382,0,0,0,0-1.832L8.558,30.068H29.687a3.74,3.74,0,0,1,3.562,3.888A1.871,1.871,0,0,0,35.031,35.9h1.188A1.871,1.871,0,0,0,38,33.956c0-5-3.729-9.073-8.312-9.073H8.558l1.536-1.676a1.382,1.382,0,0,0,0-1.832L8.558,19.7a1.119,1.119,0,0,0-1.679,0L.174,27.017a.692.692,0,0,0,0,.917Z" transform="translate(0 0)" fill="#d6dcff"/>
    <path id="Path_1301" data-name="Path 1301" d="M31.121,288.648a1.119,1.119,0,0,0-1.679,0l-1.536,1.676a1.379,1.379,0,0,0,0,1.832l1.536,1.676H8.313a3.74,3.74,0,0,1-3.562-3.888A1.871,1.871,0,0,0,2.969,288H1.781A1.871,1.871,0,0,0,0,289.944c0,5,3.729,9.073,8.313,9.073H29.442l-1.536,1.676a1.379,1.379,0,0,0,0,1.832l1.536,1.676a1.119,1.119,0,0,0,1.679,0l6.706-7.318a.692.692,0,0,0,0-.917Z" transform="translate(0 -250.128)" fill="#d6dcff"/>
  </g>
</svg>
