<svg id="Total_Consulted" data-name="Total Consulted" xmlns="http://www.w3.org/2000/svg" width="21.49" height="24" viewBox="0 0 21.49 24">
  <path id="Path_650" data-name="Path 650" d="M83.315,8.845v.407a4.469,4.469,0,0,1,1.412.166V8.845a8.845,8.845,0,0,0-17.691,0v.572a4.517,4.517,0,0,1,1.412-.166V8.845a7.433,7.433,0,1,1,14.867,0Z" transform="translate(-65.136)" fill="#fff"/>
  <path id="Path_651" data-name="Path 651" d="M207.359,386.74a3.232,3.232,0,0,1-3.229,3.3h-1.645a1.632,1.632,0,0,0-1.471-.926h-2.176a1.632,1.632,0,0,0,0,3.264h2.176a1.632,1.632,0,0,0,1.472-.926h1.645a4.652,4.652,0,0,0,4.641-4.883A4.385,4.385,0,0,1,207.359,386.74Z" transform="translate(-189.181 -368.38)" fill="#fff"/>
  <path id="Path_652" data-name="Path 652" d="M29.814,226.493a3.148,3.148,0,0,0-.064,6.3.712.712,0,0,0,.768-.708V227.2A.7.7,0,0,0,29.814,226.493Z" transform="translate(-26.667 -215.835)" fill="#fff"/>
  <path id="Path_653" data-name="Path 653" d="M402.168,226.493a.7.7,0,0,0-.693.708v4.879a.712.712,0,0,0,.768.708,3.148,3.148,0,0,0-.075-6.3Z" transform="translate(-383.837 -215.835)" fill="#fff"/>
  <path id="Path_654" data-name="Path 654" d="M180,230.128a1.919,1.919,0,0,0-2.713-2.713l-.592.592-.592-.592a1.919,1.919,0,1,0-2.713,2.713l2.972,2.972a.471.471,0,0,0,.666,0Z" transform="translate(-165.953 -216.178)" fill="#fff"/>
</svg>
