<svg xmlns="http://www.w3.org/2000/svg" width="14.701" height="13.782" viewBox="0 0 14.701 13.782">
  <g id="Worklist_Invisible_" data-name="Worklist (Invisible)" transform="translate(0 -16)">
    <path id="Path_105" data-name="Path 105" d="M183.153,226a2.153,2.153,0,1,0,2.153,2.153A2.156,2.156,0,0,0,183.153,226Zm.861,2.584h-.431v.431a.431.431,0,0,1-.861,0v-.431h-.431a.431.431,0,0,1,0-.861h.431v-.431a.431.431,0,0,1,.861,0v.431h.431a.431.431,0,0,1,0,.861Z" transform="translate(-175.803 -203.97)" fill="#84ba9e"/>
    <path id="Path_106" data-name="Path 106" d="M1.321,117.2h.431V106H1.321A1.318,1.318,0,0,0,0,107.292v8.614A1.318,1.318,0,0,0,1.321,117.2Z" transform="translate(0 -87.416)" fill="#84ba9e"/>
    <path id="Path_107" data-name="Path 107" d="M100.475,18.584h-.861V17.292A1.293,1.293,0,0,0,98.322,16H93.153a1.293,1.293,0,0,0-1.292,1.292v1.292H91v11.2h9.475Zm-7.752-1.292a.431.431,0,0,1,.431-.431h5.168a.431.431,0,0,1,.431.431v1.292h-6.03ZM95.738,27.2a3.015,3.015,0,1,1,3.015-3.015A3.018,3.018,0,0,1,95.738,27.2Z" transform="translate(-88.387)" fill="#84ba9e"/>
    <path id="Path_108" data-name="Path 108" d="M451.431,106H451v11.2h.431a1.318,1.318,0,0,0,1.321-1.292v-8.614A1.318,1.318,0,0,0,451.431,106Z" transform="translate(-438.051 -87.416)" fill="#84ba9e"/>
  </g>
</svg>
