<svg width="17" height="16" xmlns="http://www.w3.org/2000/svg" xmlns:xlink="http://www.w3.org/1999/xlink" xmlns:svgjs="http://svgjs.com/svgjs" viewBox="0.166 0 16.669 16" fill="#fff" stroke-miterlimit="100" stroke="#fff" stroke-width=".2"><svg xmlns="http://www.w3.org/2000/svg" width="17" height="16" viewBox="0.998 0.4 15.272 14.659"><path paint-order="stroke fill markers" fill-rule="evenodd" d="M14.747 9.125a8.17 8.17 0 0 0-.752-.174 13.765 13.765 0 0 0-2.474-.21c-.492 0-.973.023-1.429.066l1.843-3.192a3.454 3.454 0 0 0 .344-2.638A3.453 3.453 0 0 0 10.663.865a3.481 3.481 0 0 0-4.75 1.273L3.688 5.99s0 0 0 0v.002L1.461 9.846a3.452 3.452 0 0 0-.343 2.637c.24.9.815 1.65 1.616 2.113a3.455 3.455 0 0 0 2.493.379 3.48 3.48 0 0 0 1.75-.979c.236.27.675.496 1.314.68.867.247 2.013.383 3.23.383 1.215 0 2.361-.136 3.228-.384 1.008-.288 1.52-.687 1.52-1.186v-3.177-.002c0-.497-.513-.896-1.523-1.185zm-3.226.212c.47 0 .927.022 1.36.062l-3.789 1.673a7.537 7.537 0 0 1-.633-.15c-.894-.255-1.09-.528-1.09-.612 0-.083.196-.356 1.09-.611.816-.233 1.904-.362 3.062-.362zM6.43 2.436a2.884 2.884 0 0 1 3.935-1.054 2.86 2.86 0 0 1 1.339 1.75 2.86 2.86 0 0 1-.284 2.184L9.35 8.9l-.024.004-4.973-2.871L6.43 2.436zm.344 7.873v3.01a2.903 2.903 0 0 1-3.74.76 2.86 2.86 0 0 1-1.338-1.75 2.86 2.86 0 0 1 .284-2.185l2.076-3.596 4.392 2.536a6.4 6.4 0 0 0-.152.041c-1.01.289-1.521.687-1.522 1.184zm8.9 3.18c0 .084-.195.358-1.087.613-.815.232-1.903.36-3.065.36s-2.25-.128-3.065-.36c-.892-.255-1.087-.529-1.087-.613v-2.364a4.1 4.1 0 0 0 .926.37 8.262 8.262 0 0 0 .799.183c.723.132 1.558.202 2.427.202 1.212 0 2.358-.136 3.226-.384a4.1 4.1 0 0 0 .926-.371v2.364zm0-3.179v.001c0 .085-.198.356-1.09.611-.816.233-1.903.362-3.062.362-.45 0-.888-.02-1.304-.057l3.78-1.668c.207.041.404.088.587.14.892.255 1.088.527 1.09.611 0 0 0 0 0 0z"/></svg></svg>