<svg xmlns="http://www.w3.org/2000/svg" width="15.479" height="14.868" viewBox="0 0 15.479 14.868">
  <g id="medicine" transform="translate(0.107 0.108)">
    <g id="Group_1508" data-name="Group 1508" transform="translate(5.779 2.114)">
      <g id="Group_1507" data-name="Group 1507">
        <path id="Path_1601" data-name="Path 1601" d="M195.654,47.833a.3.3,0,0,0-.363-.215,2.413,2.413,0,0,0-1.507,1.137.3.3,0,1,0,.517.3,1.821,1.821,0,0,1,1.138-.857A.3.3,0,0,0,195.654,47.833Z" transform="translate(-193.744 -47.609)" fill="#fff" stroke="#fff" stroke-width="0.2"/>
      </g>
    </g>
    <g id="Group_1510" data-name="Group 1510" transform="translate(7.983 2.074)">
      <g id="Group_1509" data-name="Group 1509" transform="translate(0 0)">
        <path id="Path_1602" data-name="Path 1602" d="M267.984,46.292l-.014,0a.3.3,0,1,0,.014,0Z" transform="translate(-267.628 -46.286)" fill="#fff" stroke="#fff" stroke-width="0.2"/>
      </g>
    </g>
    <g id="Group_1512" data-name="Group 1512" transform="translate(0 0)">
      <g id="Group_1511" data-name="Group 1511" transform="translate(0 0)">
        <path id="Path_1603" data-name="Path 1603" d="M13.75,19c-.22-.063-.457-.118-.709-.166A.3.3,0,0,0,13,18.821a13.759,13.759,0,0,0-2.474-.21c-.492,0-.973.023-1.429.066l1.843-3.192a3.477,3.477,0,0,0-6.022-3.477L2.69,15.861h0L.465,19.716a3.473,3.473,0,0,0,3,5.213A3.5,3.5,0,0,0,5.98,23.866a2.767,2.767,0,0,0,1.315.679,12.266,12.266,0,0,0,3.229.384,12.266,12.266,0,0,0,3.229-.384c1.008-.288,1.52-.687,1.52-1.186V20.181C15.272,19.683,14.76,19.284,13.75,19Zm-3.226.212c.47,0,.927.021,1.36.062L8.094,20.942c-.225-.044-.437-.093-.633-.15-.894-.255-1.09-.528-1.09-.612s.2-.356,1.09-.612A11.65,11.65,0,0,1,10.523,19.207Zm-5.092-6.9a2.881,2.881,0,0,1,4.989,2.881L8.352,18.769l-.024,0L3.355,15.9Zm.343,7.873v3.01a2.9,2.9,0,0,1-3.739.76A2.89,2.89,0,0,1,.981,20.014l2.076-3.6,4.392,2.536L7.3,19C6.288,19.284,5.776,19.682,5.775,20.179Zm8.9,3.18c0,.084-.2.358-1.087.612a11.664,11.664,0,0,1-3.065.361,11.665,11.665,0,0,1-3.065-.361c-.892-.255-1.087-.528-1.087-.612V21a4.1,4.1,0,0,0,.926.371c.234.067.489.125.759.176l.04.007a13.839,13.839,0,0,0,2.427.2,12.25,12.25,0,0,0,3.226-.385A4.1,4.1,0,0,0,14.675,21Zm0-3.179h0c0,.084-.2.356-1.09.611a11.651,11.651,0,0,1-3.062.362c-.449,0-.888-.02-1.3-.057L13,19.429c.207.041.4.088.587.14.892.255,1.089.527,1.09.611Z" transform="translate(0 -10.27)" fill="#fff" stroke="#fff" stroke-width="0.2"/>
      </g>
    </g>
  </g>
</svg>
