<svg id="Appointments_icon" data-name="Appointments icon" xmlns="http://www.w3.org/2000/svg" width="388.324" height="388.324" viewBox="0 0 388.324 388.324">
  <path id="Path_1121" data-name="Path 1121" d="M83.753,11.377a11.377,11.377,0,1,0-22.753,0V24.27H83.753Z" transform="translate(-14.735)" fill="#e9ecfe"/>
  <path id="Path_1122" data-name="Path 1122" d="M173.753,11.377a11.377,11.377,0,0,0-22.753,0V24.27h22.753Z" transform="translate(-36.475)" fill="#e9ecfe"/>
  <path id="Path_1123" data-name="Path 1123" d="M263.753,11.377a11.377,11.377,0,0,0-22.753,0V24.27h22.753Z" transform="translate(-58.215)" fill="#e9ecfe"/>
  <path id="Path_1124" data-name="Path 1124" d="M353.753,11.377a11.377,11.377,0,0,0-22.753,0V24.27h22.753Z" transform="translate(-79.954)" fill="#e9ecfe"/>
  <path id="Path_1125" data-name="Path 1125" d="M443.753,11.377a11.377,11.377,0,0,0-22.753,0V24.27h22.753Z" transform="translate(-101.694)" fill="#e9ecfe"/>
  <path id="Path_1126" data-name="Path 1126" d="M361,381h22.753v22.753H361Z" transform="translate(-87.201 -92.032)" fill="#e9ecfe"/>
  <path id="Path_1127" data-name="Path 1127" d="M241,381h22.753v22.753H241Z" transform="translate(-58.215 -92.032)" fill="#e9ecfe"/>
  <path id="Path_1128" data-name="Path 1128" d="M121,262h22.753v22.753H121Z" transform="translate(-29.228 -63.287)" fill="#e9ecfe"/>
  <path id="Path_1129" data-name="Path 1129" d="M376.948,32H342.059V66.13a11.377,11.377,0,1,1-22.753,0V32H273.8V66.13a11.377,11.377,0,1,1-22.753,0V32H205.539V66.13a11.377,11.377,0,1,1-22.753,0V32H137.279V66.13a11.377,11.377,0,1,1-22.753,0V32H69.019V66.13a11.377,11.377,0,1,1-22.753,0V32H11.377A11.377,11.377,0,0,0,0,43.377v72.052H388.324V43.377A11.377,11.377,0,0,0,376.948,32Z" transform="translate(0 -7.73)" fill="#e9ecfe"/>
  <path id="Path_1130" data-name="Path 1130" d="M241,262h22.753v22.753H241Z" transform="translate(-58.215 -63.287)" fill="#e9ecfe"/>
  <path id="Path_1131" data-name="Path 1131" d="M361,262h22.753v22.753H361Z" transform="translate(-87.201 -63.287)" fill="#e9ecfe"/>
  <path id="Path_1132" data-name="Path 1132" d="M0,418.5a11.377,11.377,0,0,0,11.377,11.376H376.948A11.377,11.377,0,0,0,388.324,418.5V172H0ZM251.046,228.884a11.377,11.377,0,0,1,11.377-11.377h45.507a11.377,11.377,0,0,1,11.377,11.377V274.39a11.377,11.377,0,0,1-11.377,11.377H262.422a11.377,11.377,0,0,1-11.377-11.377Zm0,90.255a11.377,11.377,0,0,1,11.377-11.377h45.507a11.377,11.377,0,0,1,11.377,11.377v45.507a11.377,11.377,0,0,1-11.377,11.377H262.422a11.377,11.377,0,0,1-11.377-11.377Zm-91.013-90.255a11.377,11.377,0,0,1,11.377-11.377h45.507a11.377,11.377,0,0,1,11.377,11.377V274.39a11.377,11.377,0,0,1-11.377,11.377H171.409a11.377,11.377,0,0,1-11.377-11.377Zm0,90.255a11.377,11.377,0,0,1,11.377-11.377h45.507a11.377,11.377,0,0,1,11.377,11.377v45.507a11.377,11.377,0,0,1-11.377,11.377H171.409a11.377,11.377,0,0,1-11.377-11.377ZM69.019,228.884A11.377,11.377,0,0,1,80.4,217.507H125.9a11.377,11.377,0,0,1,11.377,11.377V274.39A11.377,11.377,0,0,1,125.9,285.767H80.4A11.377,11.377,0,0,1,69.019,274.39ZM71.6,344.993a11.376,11.376,0,0,1,16.011-1.583l6.335,5.195,23.131-28.452a11.377,11.377,0,1,1,17.654,14.354l-30.338,37.316a11.378,11.378,0,0,1-16.041,1.62L73.181,361A11.378,11.378,0,0,1,71.6,344.993Z" transform="translate(0 -41.547)" fill="#e9ecfe"/>
</svg>
