<svg id="fi-rr-camera" xmlns="http://www.w3.org/2000/svg" width="22.603" height="22.603" viewBox="0 0 22.603 22.603">
  <path id="Path_706" data-name="Path 706" d="M17.894,3.767h-.478L15.359,1.1A2.847,2.847,0,0,0,13.121,0H9.482A2.847,2.847,0,0,0,7.244,1.1L5.187,3.767H4.709A4.715,4.715,0,0,0,0,8.476v9.418A4.715,4.715,0,0,0,4.709,22.6H17.894A4.715,4.715,0,0,0,22.6,17.894V8.476a4.715,4.715,0,0,0-4.709-4.709ZM8.736,2.251a.947.947,0,0,1,.746-.367h3.639a.949.949,0,0,1,.746.367l1.17,1.516H7.566ZM20.719,17.894a2.825,2.825,0,0,1-2.825,2.825H4.709a2.825,2.825,0,0,1-2.825-2.825V8.476A2.825,2.825,0,0,1,4.709,5.651H17.894a2.825,2.825,0,0,1,2.825,2.825Z" transform="translate(0 0)" fill="#fff"/>
  <path id="Path_707" data-name="Path 707" d="M11.651,8A5.651,5.651,0,1,0,17.3,13.651,5.651,5.651,0,0,0,11.651,8Zm0,9.418a3.767,3.767,0,1,1,3.767-3.767A3.767,3.767,0,0,1,11.651,17.418Z" transform="translate(-0.349 -0.466)" fill="#fff"/>
</svg>
