<svg width="23" height="25" xmlns="http://www.w3.org/2000/svg" xmlns:xlink="http://www.w3.org/1999/xlink" xmlns:svgjs="http://svgjs.com/svgjs" viewBox="29 311 23 25"><svg width="19" height="11" xmlns="http://www.w3.org/2000/svg" xmlns:xlink="http://www.w3.org/1999/xlink" xmlns:svgjs="http://svgjs.com/svgjs" viewBox="0 0.443 19 10.115" fill="#6374df" x="31" y="311"><svg xmlns="http://www.w3.org/2000/svg" xmlns:xlink="http://www.w3.org/1999/xlink" width="19" height="11" viewBox="0.641 0.787 17.607 9.373"><path paint-order="stroke fill markers" fill-rule="evenodd" d="M16.842 9.59v.405c.23-.018.8-.006 1.406.165v-.57c0-4.853-3.95-8.803-8.804-8.803S.641 4.737.641 9.591v.57c.505-.144 1.074-.191 1.405-.166v-.404c0-4.08 3.319-7.398 7.398-7.398 4.08 0 7.398 3.319 7.398 7.398z"/></svg></svg><svg width="13" height="7" xmlns="http://www.w3.org/2000/svg" xmlns:xlink="http://www.w3.org/1999/xlink" xmlns:svgjs="http://svgjs.com/svgjs" viewBox="0 0.236 13 6.529" fill="#6374df" x="37" y="329"><svg xmlns="http://www.w3.org/2000/svg" xmlns:xlink="http://www.w3.org/1999/xlink" width="13" height="7" viewBox="0.737 0.893 11.51 5.781"><path paint-order="stroke fill markers" fill-rule="evenodd" d="M10.842 1.06c0 1.957-1.527 3.287-3.213 3.287H5.991a1.624 1.624 0 0 0-1.464-.922H2.36a1.624 1.624 0 1 0 0 3.248h2.166c.645 0 1.202-.376 1.464-.92H7.63c2.363 0 4.619-1.807 4.619-4.86-.557.16-1.118.19-1.406.167z"/></svg></svg><svg width="5" height="7" xmlns="http://www.w3.org/2000/svg" xmlns:xlink="http://www.w3.org/1999/xlink" xmlns:svgjs="http://svgjs.com/svgjs" viewBox="0.358 0 4.283 7" fill="#6374df" x="29" y="322"><svg xmlns="http://www.w3.org/2000/svg" xmlns:xlink="http://www.w3.org/1999/xlink" width="5" height="7" viewBox="0.75 0.395 3.834 6.266"><path paint-order="stroke fill markers" fill-rule="evenodd" d="M3.882.395A3.13 3.13 0 0 0 .755 3.702a3.14 3.14 0 0 0 3.064 2.959c.477.012.765-.336.765-.705V1.101a.7.7 0 0 0-.702-.706z"/></svg></svg><svg width="5" height="7" xmlns="http://www.w3.org/2000/svg" xmlns:xlink="http://www.w3.org/1999/xlink" xmlns:svgjs="http://svgjs.com/svgjs" viewBox="0.358 0 4.283 7" fill="#6374df" x="47" y="322"><svg xmlns="http://www.w3.org/2000/svg" xmlns:xlink="http://www.w3.org/1999/xlink" width="5" height="7" viewBox="0.304 0.395 3.834 6.266"><path paint-order="stroke fill markers" fill-rule="evenodd" d="M.994.395a.7.7 0 0 0-.69.706v4.855c0 .366.285.717.765.705a3.141 3.141 0 0 0 3.065-2.959A3.13 3.13 0 0 0 .994.395z"/></svg></svg><svg width="9" height="7" xmlns="http://www.w3.org/2000/svg" xmlns:xlink="http://www.w3.org/1999/xlink" xmlns:svgjs="http://svgjs.com/svgjs" viewBox="0.261 0 8.478 7" fill="#6374df" x="36" y="322"><svg xmlns="http://www.w3.org/2000/svg" width="9" height="7" viewBox="0.596 0.412 7.697 6.355"><path paint-order="stroke fill markers" fill-rule="evenodd" d="M7.733 3.672a1.91 1.91 0 0 0-2.7-2.7l-.589.588-.589-.589a1.91 1.91 0 1 0-2.7 2.7L4.113 6.63c.183.182.48.182.662 0l2.958-2.958z"/></svg></svg></svg>