<svg id="appointment" xmlns="http://www.w3.org/2000/svg" width="25.813" height="25.813" viewBox="0 0 25.813 25.813">
  <path id="Path_1121" data-name="Path 1121" d="M62.513.756A.756.756,0,1,0,61,.756v.857h1.513Z" transform="translate(-57.925)" fill="#969ec8"/>
  <path id="Path_1122" data-name="Path 1122" d="M152.513.756a.756.756,0,0,0-1.513,0v.857h1.513Z" transform="translate(-143.387)" fill="#969ec8"/>
  <path id="Path_1123" data-name="Path 1123" d="M242.513.756a.756.756,0,0,0-1.513,0v.857h1.513Z" transform="translate(-228.85)" fill="#969ec8"/>
  <path id="Path_1124" data-name="Path 1124" d="M332.513.756a.756.756,0,0,0-1.513,0v.857h1.513Z" transform="translate(-314.312)" fill="#969ec8"/>
  <path id="Path_1125" data-name="Path 1125" d="M422.513.756a.756.756,0,0,0-1.513,0v.857h1.513Z" transform="translate(-399.774)" fill="#969ec8"/>
  <path id="Path_1126" data-name="Path 1126" d="M361,381h1.513v1.513H361Z" transform="translate(-342.799 -361.791)" fill="#969ec8"/>
  <path id="Path_1127" data-name="Path 1127" d="M241,381h1.513v1.513H241Z" transform="translate(-228.85 -361.791)" fill="#969ec8"/>
  <path id="Path_1128" data-name="Path 1128" d="M121,262h1.513v1.513H121Z" transform="translate(-114.9 -248.791)" fill="#969ec8"/>
  <path id="Path_1129" data-name="Path 1129" d="M25.057,32H22.738v2.269a.756.756,0,0,1-1.513,0V32H18.2v2.269a.756.756,0,0,1-1.513,0V32H13.663v2.269a.756.756,0,0,1-1.513,0V32H9.125v2.269a.756.756,0,0,1-1.513,0V32H4.588v2.269a.756.756,0,0,1-1.513,0V32H.756A.756.756,0,0,0,0,32.756v4.79H25.813v-4.79A.756.756,0,0,0,25.057,32Z" transform="translate(0 -30.387)" fill="#969ec8"/>
  <path id="Path_1130" data-name="Path 1130" d="M241,262h1.513v1.513H241Z" transform="translate(-228.85 -248.791)" fill="#969ec8"/>
  <path id="Path_1131" data-name="Path 1131" d="M361,262h1.513v1.513H361Z" transform="translate(-342.799 -248.791)" fill="#969ec8"/>
  <path id="Path_1132" data-name="Path 1132" d="M0,188.386a.756.756,0,0,0,.756.756h24.3a.756.756,0,0,0,.756-.756V172H0Zm16.688-12.6a.756.756,0,0,1,.756-.756h3.025a.756.756,0,0,1,.756.756v3.025a.756.756,0,0,1-.756.756H17.444a.756.756,0,0,1-.756-.756Zm0,6a.756.756,0,0,1,.756-.756h3.025a.756.756,0,0,1,.756.756v3.025a.756.756,0,0,1-.756.756H17.444a.756.756,0,0,1-.756-.756Zm-6.05-6a.756.756,0,0,1,.756-.756h3.025a.756.756,0,0,1,.756.756v3.025a.756.756,0,0,1-.756.756H11.394a.756.756,0,0,1-.756-.756Zm0,6a.756.756,0,0,1,.756-.756h3.025a.756.756,0,0,1,.756.756v3.025a.756.756,0,0,1-.756.756H11.394a.756.756,0,0,1-.756-.756Zm-6.05-6a.756.756,0,0,1,.756-.756H8.369a.756.756,0,0,1,.756.756v3.025a.756.756,0,0,1-.756.756H5.344a.756.756,0,0,1-.756-.756Zm.171,7.718a.756.756,0,0,1,1.064-.105l.421.345,1.538-1.891a.756.756,0,1,1,1.174.954l-2.017,2.481a.756.756,0,0,1-1.066.108l-1.008-.827a.756.756,0,0,1-.105-1.064Z" transform="translate(0 -163.328)" fill="#969ec8"/>
</svg>
