<svg xmlns="http://www.w3.org/2000/svg" width="47.25" height="54" viewBox="0 0 47.25 54">
  <g id="doc" transform="translate(-32)">
    <path id="Path_3164" data-name="Path 3164" d="M99.375,0A3.385,3.385,0,0,0,96,3.375v47.25A3.385,3.385,0,0,0,99.375,54h33.75a3.385,3.385,0,0,0,3.375-3.375V13.5L123,0Z" transform="translate(-57.25)" fill="#e2e5e7"/>
    <path id="Path_3165" data-name="Path 3165" d="M355.375,13.5H365.5L352,0V10.125A3.385,3.385,0,0,0,355.375,13.5Z" transform="translate(-286.25)" fill="#b0b7bd"/>
    <path id="Path_3166" data-name="Path 3166" d="M394.125,138.125,384,128h10.125Z" transform="translate(-314.875 -114.5)" fill="#cad1d8"/>
    <path id="Path_3167" data-name="Path 3167" d="M72.5,258.563a1.692,1.692,0,0,1-1.688,1.688H33.688A1.692,1.692,0,0,1,32,258.563V241.688A1.692,1.692,0,0,1,33.688,240H70.812a1.692,1.692,0,0,1,1.688,1.688Z" transform="translate(0 -214.688)" fill="#50bee8"/>
    <g id="Group_1861" data-name="Group 1861" transform="translate(37.457 30.826)">
      <path id="Path_3168" data-name="Path 3168" d="M84.675,304.809a.846.846,0,0,1-.932-.837v-7.663a.917.917,0,0,1,.932-.837h3.09c6.166,0,6.029,9.337.12,9.337Zm.85-7.692v6.045h2.239c3.643,0,3.8-6.045,0-6.045Z" transform="translate(-83.744 -295.134)" fill="#fff"/>
      <path id="Path_3169" data-name="Path 3169" d="M184.848,302.081a4.712,4.712,0,0,1-5.088-4.858,4.959,4.959,0,0,1,9.917,0A4.705,4.705,0,0,1,184.848,302.081Zm-.148-8.054a3.2,3.2,0,1,0,3.211,3.2A3.088,3.088,0,0,0,184.7,294.027Z" transform="translate(-169.633 -292.272)" fill="#fff"/>
      <path id="Path_3170" data-name="Path 3170" d="M288.848,298.011a4.542,4.542,0,0,1,4.737-4.843,4.409,4.409,0,0,1,3.09,1.2.875.875,0,1,1-1.2,1.267,2.329,2.329,0,0,0-1.888-.741,2.915,2.915,0,0,0-3.075,3.117,2.967,2.967,0,0,0,3.075,3.211,3.152,3.152,0,0,0,2.106-.864.906.906,0,0,1,1.24.162.931.931,0,0,1-.148,1.267,4.413,4.413,0,0,1-3.2,1.055C290.319,302.844,288.848,300.615,288.848,298.011Z" transform="translate(-267.216 -293.074)" fill="#fff"/>
    </g>
    <path id="Path_3171" data-name="Path 3171" d="M128.063,417.688H96v1.688h32.063a1.692,1.692,0,0,0,1.687-1.687V416A1.692,1.692,0,0,1,128.063,417.688Z" transform="translate(-57.25 -372.125)" fill="#cad1d8"/>
  </g>
</svg>
