<svg xmlns="http://www.w3.org/2000/svg" width="63.117" height="54" viewBox="0 0 63.117 54">
  <g id="excel" transform="translate(0 -15.99)">
    <path id="Path_3172" data-name="Path 3172" d="M285.587,119.609H257.972a1.893,1.893,0,0,1-1.972-1.8v-36a1.893,1.893,0,0,1,1.972-1.8h27.615a1.893,1.893,0,0,1,1.972,1.8v36A1.893,1.893,0,0,1,285.587,119.609Z" transform="translate(-224.44 -56.819)" fill="#eceff1"/>
    <g id="Group_1862" data-name="Group 1862" transform="translate(31.56 30.391)">
      <path id="Path_3173" data-name="Path 3173" d="M265.862,147.611h-7.89a1.807,1.807,0,1,1,0-3.6h7.89a1.807,1.807,0,1,1,0,3.6Z" transform="translate(-256 -144.011)" fill="#388e3c"/>
      <path id="Path_3174" data-name="Path 3174" d="M265.862,211.611h-7.89a1.807,1.807,0,1,1,0-3.6h7.89a1.807,1.807,0,1,1,0,3.6Z" transform="translate(-256 -200.811)" fill="#388e3c"/>
      <path id="Path_3175" data-name="Path 3175" d="M265.862,275.611h-7.89a1.807,1.807,0,1,1,0-3.6h7.89a1.807,1.807,0,1,1,0,3.6Z" transform="translate(-256 -257.612)" fill="#388e3c"/>
      <path id="Path_3176" data-name="Path 3176" d="M265.862,339.611h-7.89a1.807,1.807,0,1,1,0-3.6h7.89a1.807,1.807,0,1,1,0,3.6Z" transform="translate(-256 -314.412)" fill="#388e3c"/>
      <path id="Path_3177" data-name="Path 3177" d="M389.917,147.611h-3.945a1.807,1.807,0,1,1,0-3.6h3.945a1.807,1.807,0,1,1,0,3.6Z" transform="translate(-368.22 -144.011)" fill="#388e3c"/>
      <path id="Path_3178" data-name="Path 3178" d="M389.917,211.611h-3.945a1.807,1.807,0,1,1,0-3.6h3.945a1.807,1.807,0,1,1,0,3.6Z" transform="translate(-368.22 -200.811)" fill="#388e3c"/>
      <path id="Path_3179" data-name="Path 3179" d="M389.917,275.611h-3.945a1.807,1.807,0,1,1,0-3.6h3.945a1.807,1.807,0,1,1,0,3.6Z" transform="translate(-368.22 -257.612)" fill="#388e3c"/>
      <path id="Path_3180" data-name="Path 3180" d="M389.917,339.611h-3.945a1.807,1.807,0,1,1,0-3.6h3.945a1.807,1.807,0,1,1,0,3.6Z" transform="translate(-368.22 -314.412)" fill="#388e3c"/>
    </g>
    <path id="Path_3181" data-name="Path 3181" d="M34.79,16.406a2.075,2.075,0,0,0-1.621-.382l-31.56,5.4A1.848,1.848,0,0,0,0,23.192v39.6a1.851,1.851,0,0,0,1.61,1.768l31.56,5.4a2.028,2.028,0,0,0,.363.032,2.082,2.082,0,0,0,1.258-.414A1.743,1.743,0,0,0,35.5,68.19v-50.4A1.738,1.738,0,0,0,34.79,16.406Z" transform="translate(0 0)" fill="#2e7d32"/>
    <path id="Path_3182" data-name="Path 3182" d="M97.249,176.84l-6.237-6.5,6.308-7.4a1.7,1.7,0,0,0-.343-2.527,2.107,2.107,0,0,0-2.769.313l-5.842,6.854-4.923-5.133a2.1,2.1,0,0,0-2.781-.169,1.69,1.69,0,0,0-.185,2.538l5.424,5.659-5.5,6.451a1.7,1.7,0,0,0,.343,2.527,2.112,2.112,0,0,0,1.215.378,2.042,2.042,0,0,0,1.558-.695l5.03-5.9,5.736,5.979a2.042,2.042,0,0,0,1.483.619,2.079,2.079,0,0,0,1.3-.446A1.69,1.69,0,0,0,97.249,176.84Z" transform="translate(-70.123 -127.834)" fill="#fafafa"/>
  </g>
</svg>
