<svg xmlns="http://www.w3.org/2000/svg" width="27.981" height="31" viewBox="0 0 27.981 31">
  <g id="Filter_Icon" data-name="Filter Icon" transform="translate(-599.841 -411)">
    <g id="filter_1_" data-name="filter (1)" transform="translate(574.914 411)">
      <path id="Path_1293" data-name="Path 1293" d="M78.451,104.548c.487.7.341.118.341,14.168a1.53,1.53,0,0,0,2.445,1.225c4.32-3.257,5.183-3.539,5.183-5.063,0-10.239-.119-9.663.341-10.33L93.779,95H71.436Z" transform="translate(-43.693 -89.247)" fill="#888da8"/>
      <path id="Path_1294" data-name="Path 1294" d="M52.736.779A1.444,1.444,0,0,0,51.452,0H26.376A1.448,1.448,0,0,0,25.19,2.277c.006.009-.076-.1,1.218,1.659H51.42c1.1-1.5,1.84-2.15,1.316-3.157Z" transform="translate(0)" fill="#888da8"/>
    </g>
  </g>
</svg>
