<svg width="27" height="22" xmlns="http://www.w3.org/2000/svg" xmlns:xlink="http://www.w3.org/1999/xlink" xmlns:svgjs="http://svgjs.com/svgjs" viewBox="0.667 0 25.667 22" fill="#6374df"><svg xmlns="http://www.w3.org/2000/svg" width="27" height="22" viewBox="0.75 -0.001 25.667 22"><path paint-order="stroke fill markers" fill-rule="evenodd" d="M15.417 0c-6.075 0-11 4.925-11 11H.75l4.754 4.754.086.171L10.528 11H6.86a8.549 8.549 0 0 1 8.556-8.556A8.55 8.55 0 0 1 23.972 11a8.55 8.55 0 0 1-8.555 8.555 8.487 8.487 0 0 1-6.038-2.518l-1.736 1.736A10.944 10.944 0 0 0 15.417 22c6.074 0 11-4.926 11-11 0-6.075-4.926-11-11-11zm-1.223 6.11v6.112l5.231 3.105.88-1.48-4.277-2.542V6.111h-1.834z"/></svg></svg>