<svg xmlns="http://www.w3.org/2000/svg" width="30" height="26" viewBox="0 0 30 26">
  <g id="Hospital_Icon" data-name="Hospital Icon" transform="translate(-5354.276 -3353.577)">
    <path id="Subtraction_2" data-name="Subtraction 2" d="M3365.276,1888.577h-16v-26h16v26Zm-8-19a6,6,0,1,0,6,6A6.007,6.007,0,0,0,3357.276,1869.577Z" transform="translate(2012 1491)" fill="#354291"/>
    <path id="Subtraction_4" data-name="Subtraction 4" d="M3354.276,1881.577h-5v-19h5v19Zm-4-11v3h3v-3Zm0-4v3h3v-3Z" transform="translate(2005 1498)" fill="#354291"/>
    <path id="Subtraction_1" data-name="Subtraction 1" d="M3354.276,1881.577h-5v-19h5v19Zm-4-11v3h3v-3Zm0-4v3h3v-3Z" transform="translate(2030 1498)" fill="#354291"/>
    <g id="Group_1055" data-name="Group 1055" transform="translate(5364.837 3362.138)">
      <rect id="Rectangle_1616" data-name="Rectangle 1616" width="8" height="2" transform="translate(0.438 3.439)" fill="#354291"/>
      <rect id="Rectangle_1617" data-name="Rectangle 1617" width="8" height="2" transform="translate(3.438 8.439) rotate(-90)" fill="#354291"/>
    </g>
  </g>
</svg>
