<svg xmlns="http://www.w3.org/2000/svg" width="60" height="60" viewBox="0 0 60 60">
  <g id="Group_1230" data-name="Group 1230" transform="translate(-99.574 -4297)">
    <g id="medical-report" transform="translate(99.574 4297)" opacity="0.25">
      <g id="Group_1030" data-name="Group 1030" transform="translate(14.222 30.404)">
        <g id="Group_1027" data-name="Group 1027">
          <path id="Path_1158" data-name="Path 1158" d="M126.964,262.743a.9.9,0,0,1-.913-.884v-1.415a.914.914,0,0,1,1.827,0v1.415A.9.9,0,0,1,126.964,262.743Z" transform="translate(-126.051 -259.56)" fill="#354291"/>
        </g>
        <g id="Group_1028" data-name="Group 1028" transform="translate(15.21)">
          <path id="Path_1159" data-name="Path 1159" d="M251.862,262.743a.9.9,0,0,1-.913-.884v-1.415a.914.914,0,0,1,1.827,0v1.415A.9.9,0,0,1,251.862,262.743Z" transform="translate(-250.949 -259.56)" fill="#354291"/>
        </g>
        <g id="Group_1029" data-name="Group 1029" transform="translate(5.6 1.373)">
          <path id="Path_1160" data-name="Path 1160" d="M174.954,273.856a3.624,3.624,0,0,1-2.694-1.187.865.865,0,0,1,.089-1.248.934.934,0,0,1,1.289.086,1.782,1.782,0,0,0,2.633,0,.935.935,0,0,1,1.289-.086.865.865,0,0,1,.089,1.248A3.624,3.624,0,0,1,174.954,273.856Z" transform="translate(-172.035 -271.203)" fill="#354291"/>
        </g>
      </g>
      <g id="Group_1031" data-name="Group 1031" transform="translate(0)">
        <path id="Path_1161" data-name="Path 1161" d="M69.413,358.768H84.027a.885.885,0,1,0,0-1.768H69.413a.885.885,0,1,0,0,1.768Z" transform="translate(-61.193 -315.172)" fill="#354291"/>
        <path id="Path_1162" data-name="Path 1162" d="M84.027,397H69.413a.885.885,0,1,0,0,1.768H84.027a.885.885,0,1,0,0-1.768Z" transform="translate(-61.193 -350.485)" fill="#354291"/>
        <path id="Path_1163" data-name="Path 1163" d="M79.156,437H69.413a.885.885,0,1,0,0,1.768h9.742a.885.885,0,1,0,0-1.768Z" transform="translate(-61.193 -385.842)" fill="#354291"/>
        <path id="Path_1164" data-name="Path 1164" d="M60.318,0H16.682A8.058,8.058,0,0,0,8.5,7.91V52.09A8.058,8.058,0,0,0,16.682,60H60.318A8.058,8.058,0,0,0,68.5,52.09V7.91A8.059,8.059,0,0,0,60.318,0Zm-50,52.09V7.91a6.268,6.268,0,0,1,6.364-6.152H45.773A6.268,6.268,0,0,1,52.136,7.91V44.18H45.773a8.058,8.058,0,0,0-8.182,7.91v6.152H16.682A6.268,6.268,0,0,1,10.318,52.09Zm41.788-6.152a13.438,13.438,0,0,1-12.7,12.276V52.09a6.268,6.268,0,0,1,6.364-6.152Zm1.848-.879V7.91a7.8,7.8,0,0,0-3.047-6.152h2.138A6.268,6.268,0,0,1,59.409,7.91V52.09a6.268,6.268,0,0,1-6.364,6.152H45.766A14.9,14.9,0,0,0,53.955,45.059ZM66.682,52.09a6.268,6.268,0,0,1-6.364,6.152H58.18a7.8,7.8,0,0,0,3.047-6.152V7.91A7.8,7.8,0,0,0,58.18,1.758h2.138A6.268,6.268,0,0,1,66.682,7.91Z" transform="translate(-8.5 0)" fill="#354291"/>
        <text id="JPG" transform="translate(22.534 19.584)" fill="#354291" font-size="9" font-family="Roboto-Bold, Roboto" font-weight="700"><tspan x="-8.363" y="0">JPG</tspan></text>
      </g>
    </g>
    <g id="Path_1289" data-name="Path 1289" transform="translate(107.108 4306.5)" fill="none">
      <path d="M3.3,0h24.4a3.245,3.245,0,0,1,3.3,3.191v7.66a3.245,3.245,0,0,1-3.3,3.191H3.3A3.245,3.245,0,0,1,0,10.851V3.191A3.245,3.245,0,0,1,3.3,0Z" stroke="none"/>
      <path d="M 3.296703338623047 1.999997138977051 C 2.581703186035156 1.999997138977051 2.000003814697266 2.534497261047363 2.000003814697266 3.191487312316895 L 2.000003814697266 10.85106658935547 C 2.000003814697266 11.508056640625 2.581703186035156 12.04255676269531 3.296703338623047 12.04255676269531 L 27.69230461120605 12.04255676269531 C 28.40730476379395 12.04255676269531 28.98900413513184 11.508056640625 28.98900413513184 10.85106658935547 L 28.98900413513184 3.191487312316895 C 28.98900413513184 2.534497261047363 28.40730476379395 1.999997138977051 27.69230461120605 1.999997138977051 L 3.296703338623047 1.999997138977051 M 3.296703338623047 -2.86102294921875e-06 L 27.69230461120605 -2.86102294921875e-06 C 29.51302337646484 -2.86102294921875e-06 30.98900413513184 1.428876876831055 30.98900413513184 3.191487312316895 L 30.98900413513184 10.85106658935547 C 30.98900413513184 12.61367702484131 29.51302337646484 14.04255676269531 27.69230461120605 14.04255676269531 L 3.296703338623047 14.04255676269531 C 1.475984573364258 14.04255676269531 3.814697265625e-06 12.61367702484131 3.814697265625e-06 10.85106658935547 L 3.814697265625e-06 3.191487312316895 C 3.814697265625e-06 1.428876876831055 1.475984573364258 -2.86102294921875e-06 3.296703338623047 -2.86102294921875e-06 Z" stroke="none" fill="#bbc0e2"/>
    </g>
  </g>
</svg>
