<svg xmlns="http://www.w3.org/2000/svg" width="31" height="31" viewBox="0 0 31 31">
  <g id="Mail_icon" data-name="Mail icon" transform="translate(-421 -160)">
    <rect id="Rectangle_1624" data-name="Rectangle 1624" width="31" height="31" rx="4" transform="translate(421 160)" fill="#354291"/>
    <g id="mail" transform="translate(424 91.211)">
      <g id="Group_1070" data-name="Group 1070" transform="translate(17.198 77.256)">
        <g id="Group_1069" data-name="Group 1069">
          <path id="Path_1258" data-name="Path 1258" d="M359.793,101.721l-7.582,7.533,7.582,7.533a2.172,2.172,0,0,0,.22-.941V102.662A2.172,2.172,0,0,0,359.793,101.721Z" transform="translate(-352.211 -101.721)" fill="#fff"/>
        </g>
      </g>
      <g id="Group_1072" data-name="Group 1072" transform="translate(1.256 76)">
        <g id="Group_1071" data-name="Group 1071">
          <path id="Path_1259" data-name="Path 1259" d="M47.268,76H26.662a2.172,2.172,0,0,0-.941.22l9.691,9.642a2.2,2.2,0,0,0,3.107,0l9.691-9.642A2.172,2.172,0,0,0,47.268,76Z" transform="translate(-25.721 -76)" fill="#fff"/>
        </g>
      </g>
      <g id="Group_1074" data-name="Group 1074" transform="translate(0 77.256)">
        <g id="Group_1073" data-name="Group 1073">
          <path id="Path_1260" data-name="Path 1260" d="M.22,101.721a2.172,2.172,0,0,0-.22.941v13.184a2.172,2.172,0,0,0,.22.941L7.8,109.254Z" transform="translate(0 -101.721)" fill="#fff"/>
        </g>
      </g>
      <g id="Group_1076" data-name="Group 1076" transform="translate(1.256 85.825)">
        <g id="Group_1075" data-name="Group 1075">
          <path id="Path_1261" data-name="Path 1261" d="M40.627,277.211l-1.073,1.073a3.666,3.666,0,0,1-5.178,0L33.3,277.211l-7.582,7.533a2.172,2.172,0,0,0,.941.22H47.268a2.172,2.172,0,0,0,.941-.22Z" transform="translate(-25.721 -277.211)" fill="#fff"/>
        </g>
      </g>
    </g>
  </g>
</svg>
