<svg xmlns="http://www.w3.org/2000/svg" width="31" height="31" viewBox="0 0 31 31"><g transform="translate(-246 -205)"><rect width="31" height="31" rx="4" transform="translate(246 205)" fill="#354291"/><g transform="translate(173.032 208)"><path d="M95.964,4.281A8.484,8.484,0,0,0,88.755,0c-.128,0-.257,0-.385,0a8.484,8.484,0,0,0-7.209,4.279,8.7,8.7,0,0,0-.114,8.6l6.2,11.347.008.015a1.507,1.507,0,0,0,2.614,0l.008-.015,6.2-11.347a8.7,8.7,0,0,0-.114-8.6Zm-7.4,7.047a3.516,3.516,0,1,1,3.516-3.516A3.52,3.52,0,0,1,88.563,11.328Z" transform="translate(0 0)" fill="#fff"/></g></g></svg>