<svg xmlns="http://www.w3.org/2000/svg" width="200" height="213.333" viewBox="0 0 200 213.333">
  <g id="medical" transform="translate(-16)">
    <path id="Path_1594" data-name="Path 1594" d="M202.667,13.333H186V10a10,10,0,0,0-20,0v3.333H66V10a10,10,0,0,0-20,0v3.333H29.333A13.348,13.348,0,0,0,16,26.667v140A13.348,13.348,0,0,0,29.333,180H76a3.333,3.333,0,1,0,0-6.667H29.333a6.674,6.674,0,0,1-6.667-6.667V53.333H209.333V166.667a6.674,6.674,0,0,1-6.667,6.667H166A3.333,3.333,0,1,0,166,180h36.667A13.348,13.348,0,0,0,216,166.667v-140A13.348,13.348,0,0,0,202.667,13.333Zm-30-3.333a3.333,3.333,0,0,1,6.667,0V26.667a3.333,3.333,0,0,1-6.667,0Zm-120,0a3.333,3.333,0,1,1,6.667,0V26.667a3.333,3.333,0,1,1-6.667,0Zm-30,36.667v-20A6.674,6.674,0,0,1,29.333,20H46v6.667a10,10,0,1,0,20,0V20H166v6.667a10,10,0,1,0,20,0V20h16.667a6.674,6.674,0,0,1,6.667,6.667v20Z" fill="#cccfe3"/>
    <path id="Path_1595" data-name="Path 1595" d="M233.333,261.333A20,20,0,1,0,210,281.05v18.616a28.333,28.333,0,0,1-56.667,0V281.144A30.04,30.04,0,0,0,180,251.333v-30A13.348,13.348,0,0,0,166.667,208a3.333,3.333,0,1,0,0,6.667,6.674,6.674,0,0,1,6.667,6.667v30a23.333,23.333,0,1,1-46.667,0v-30a6.674,6.674,0,0,1,6.667-6.667,3.333,3.333,0,0,0,0-6.667A13.348,13.348,0,0,0,120,221.333v30a30.04,30.04,0,0,0,26.667,29.81v18.523a35,35,0,0,0,70,0V281.05A20.029,20.029,0,0,0,233.333,261.333Zm-33.333,0a13.333,13.333,0,1,1,16.667,12.911V267.1a6.667,6.667,0,1,0-6.667,0v7.147A13.357,13.357,0,0,1,200,261.333Z" transform="translate(-60.667 -121.333)" fill="#cccfe3"/>
  </g>
</svg>
