<svg xmlns="http://www.w3.org/2000/svg" width="48.775" height="54" viewBox="0 0 48.775 54">
  <g id="pdf" transform="translate(-24.773)">
    <path id="Path_3183" data-name="Path 3183" d="M30.871,271.227H29.129a4.355,4.355,0,0,1-4.355-4.355,2.613,2.613,0,0,1,2.613-2.613h3.484v6.968Z" transform="translate(0 -236.388)" fill="#bd4150"/>
    <path id="Path_3184" data-name="Path 3184" d="M115.456,0H83.23l-.9,1.742V53.156h40.962l1.742-.9V9.581Z" transform="translate(-51.488 0)" fill="#eceaec"/>
    <path id="Path_3185" data-name="Path 3185" d="M76.065,49.645V0a1.742,1.742,0,0,0-1.742,1.742V52.258A1.742,1.742,0,0,0,76.065,54h40.065a1.742,1.742,0,0,0,1.742-1.742H78.678a2.613,2.613,0,0,1-2.613-2.613Z" transform="translate(-44.323 0)" fill="#dad8db"/>
    <path id="Path_3186" data-name="Path 3186" d="M405.968,9.431a1.742,1.742,0,0,0-.51-1.232L397.768.51A1.742,1.742,0,0,0,396.536,0h-.149V8.71a.871.871,0,0,0,.871.871h8.71Z" transform="translate(-332.419 0)" fill="#dad8db"/>
    <path id="Path_3187" data-name="Path 3187" d="M62.043,312.545h-27a2.609,2.609,0,0,1-.871-.149l-.839,1.4v11a2.613,2.613,0,0,0,2.613,2.613h26.1l1.742-.932V314.287A1.742,1.742,0,0,0,62.043,312.545Z" transform="translate(-7.656 -279.448)" fill="#e15f78"/>
    <path id="Path_3188" data-name="Path 3188" d="M26.516,291.5a2.62,2.62,0,0,1-1.742-2.464v15.677a2.613,2.613,0,0,0,2.613,2.613h27a1.742,1.742,0,0,0,1.742-1.742h-27a2.613,2.613,0,0,1-2.613-2.613Z" transform="translate(0 -258.548)" fill="#db4655"/>
    <g id="Group_1863" data-name="Group 1863" transform="translate(30.845 36.581)">
      <path id="Path_3189" data-name="Path 3189" d="M231.178,350.474h-1.71v-1.651H231.4a.871.871,0,0,0,0-1.742h-2.8a.871.871,0,0,0-.871.871v6.917a.871.871,0,1,0,1.742,0v-2.653h1.71a.871.871,0,0,0,0-1.742Z" transform="translate(-212.392 -347.055)" fill="#fff"/>
      <path id="Path_3190" data-name="Path 3190" d="M85.149,346.839h-1.94a.87.87,0,0,0-.87.871h0v6.968a.871.871,0,0,0,1.742,0v-2.16l1.069,0a2.838,2.838,0,1,0,0-5.675Zm0,3.932-1.061,0c0-.4-.006-2.194-.006-2.194h1.067a1.1,1.1,0,1,1,0,2.191Z" transform="translate(-82.338 -346.839)" fill="#fff"/>
      <path id="Path_3191" data-name="Path 3191" d="M154.617,347.815H152.7a.87.87,0,0,0-.871.873l.005,3.372c0,.94.009,3.392.009,3.392a.871.871,0,0,0,.871.868h0s1.42-.005,1.969-.015c2.046-.036,3.531-1.818,3.531-4.237C158.219,349.524,156.771,347.815,154.617,347.815Zm.041,6.747c-.249,0-.68.008-1.073.01,0-.8-.006-1.938-.006-2.513l0-2.5h1.042c1.771,0,1.86,2.091,1.86,2.51,0,1.226-.562,2.473-1.819,2.5Z" transform="translate(-144.502 -347.712)" fill="#fff"/>
    </g>
    <path id="Path_3192" data-name="Path 3192" d="M180.245,97.794a2.018,2.018,0,0,1-1.706-1.009A2.327,2.327,0,0,1,179,93.743a13.419,13.419,0,0,1,5.136-2.608,44.791,44.791,0,0,0,2.126-4.676c.4-1.032.727-1.963.988-2.795-1.147-2.1-1.83-4.062-1.648-5.333a2.226,2.226,0,0,1,2.581-1.938c.425.023,1.44.245,1.685,1.807a14.182,14.182,0,0,1-.759,5.32,33.127,33.127,0,0,0,4.433,5.828c2.421-.148,4.472.029,5.5.651a1.746,1.746,0,0,1,.849,2.126,2.328,2.328,0,0,1-2.927,1.688,10.092,10.092,0,0,1-4.065-2.7,40.574,40.574,0,0,0-7.543,1.4c-1.449,2.6-3.014,4.624-4.329,5.126A2.176,2.176,0,0,1,180.245,97.794ZM180,95.838c.145.224.225.219.263.215.555-.057,1.478-1.014,2.533-2.632a11.788,11.788,0,0,0-1.848.971C179.629,95.265,179.909,95.7,180,95.838ZM195.344,91a5.673,5.673,0,0,0,2.014,1.115c.452.105.684.051.876-.534C197.977,91.193,196.884,91.006,195.344,91Zm-6.918-5.37a47.5,47.5,0,0,1-2.019,4.855,42.354,42.354,0,0,1,5-.938A34.507,34.507,0,0,1,188.426,85.632Zm-.419-7.533c-.618,0-.651.232-.686.477a5.46,5.46,0,0,0,.582,2.614c.394-1.88.314-2.875.122-3.09Z" transform="translate(-137.208 -68.33)" fill="#e15f78"/>
  </g>
</svg>
