<svg xmlns="http://www.w3.org/2000/svg" width="134.43" height="163.956" viewBox="0 0 134.43 163.956">
  <g id="Group_1046" data-name="Group 1046" transform="translate(-10020.722 408.565)">
    <g id="_008-rx" data-name="008-rx" transform="translate(10035.067 -408.565)">
      <g id="Group_1040" data-name="Group 1040" transform="translate(37.376 87.993)">
        <g id="Group_1037" data-name="Group 1037">
          <path id="Path_1175" data-name="Path 1175" d="M187.621,267.389h0a2.4,2.4,0,0,1-2.4-2.4l0-3.8a2.4,2.4,0,0,1,2.4-2.4h0a2.4,2.4,0,0,1,2.4,2.4l0,3.8A2.4,2.4,0,0,1,187.621,267.389Z" transform="translate(-185.219 -258.783)" fill="#cccfe3"/>
        </g>
        <g id="Group_1038" data-name="Group 1038" transform="translate(40.541 0.039)">
          <path id="Path_1176" data-name="Path 1176" d="M314.223,267.512h0a2.4,2.4,0,0,1-2.4-2.4l0-3.8a2.4,2.4,0,0,1,2.4-2.4h0a2.4,2.4,0,0,1,2.4,2.4l0,3.8A2.4,2.4,0,0,1,314.223,267.512Z" transform="translate(-311.821 -258.906)" fill="#cccfe3"/>
        </g>
        <g id="Group_1039" data-name="Group 1039" transform="translate(14.925 5.507)">
          <path id="Path_1177" data-name="Path 1177" d="M244.916,280.792h0l-10.688-.009a2.4,2.4,0,0,1,0-4.8h0l10.689.009a2.4,2.4,0,0,1,0,4.8Z" transform="translate(-231.826 -275.979)" fill="#cccfe3"/>
        </g>
      </g>
      <g id="Group_1041" data-name="Group 1041" transform="translate(0 0)">
        <path id="Path_1178" data-name="Path 1178" d="M169.329,357H130.9a2.4,2.4,0,0,0,0,4.8h38.427a2.4,2.4,0,1,0,0-4.8Z" transform="translate(-109.286 -242.679)" fill="#cccfe3"/>
        <path id="Path_1179" data-name="Path 1179" d="M171.73,399.4a2.4,2.4,0,0,0-2.4-2.4H130.9a2.4,2.4,0,0,0,0,4.8h38.427A2.4,2.4,0,0,0,171.73,399.4Z" transform="translate(-109.286 -269.87)" fill="#cccfe3"/>
        <path id="Path_1180" data-name="Path 1180" d="M130.9,437a2.4,2.4,0,0,0,0,4.8H156.52a2.4,2.4,0,1,0,0-4.8Z" transform="translate(-109.286 -297.061)" fill="#cccfe3"/>
        <path id="Path_1181" data-name="Path 1181" d="M186.183,88.38a2.4,2.4,0,0,0,2.4-2.4V21.615A21.64,21.64,0,0,0,166.969,0H90.115A21.64,21.64,0,0,0,68.5,21.615V142.34a21.64,21.64,0,0,0,21.615,21.615h57.641a40.875,40.875,0,0,0,40.829-40.829V95.585a2.4,2.4,0,0,0-4.8,0v25.14H166.969a21.64,21.64,0,0,0-21.615,21.615v16.812H90.115A16.831,16.831,0,0,1,73.3,142.34V21.615A16.831,16.831,0,0,1,90.115,4.8h76.854a16.831,16.831,0,0,1,16.812,16.812V85.978a2.4,2.4,0,0,0,2.4,2.4Zm-36.025,53.96a16.831,16.831,0,0,1,16.812-16.812H183.7a36.085,36.085,0,0,1-33.545,33.545Z" transform="translate(-68.5 0)" fill="#cccfe3"/>
      </g>
      <path id="Path_1182" data-name="Path 1182" d="M119.417,40H45.4A5.405,5.405,0,0,0,40,45.4v6.946a1.472,1.472,0,1,0,2.945,0V45.4A2.457,2.457,0,0,1,45.4,42.945h74.017a2.457,2.457,0,0,1,2.454,2.454V91.93a2.457,2.457,0,0,1-2.454,2.454H45.4a2.457,2.457,0,0,1-2.454-2.454V70.482H61.158L66.5,88.424a1.472,1.472,0,0,0,1.411,1.052h.031a1.472,1.472,0,0,0,1.4-1.111l8.445-33.392,4.152,14.444a1.472,1.472,0,0,0,1.415,1.066h8.725a13.319,13.319,0,0,0,2.008,2.928,29.233,29.233,0,0,0,7.856,6.087,3.967,3.967,0,0,0,3.7,0A29.232,29.232,0,0,0,113.5,73.41a11.906,11.906,0,0,0,3.11-10.141,7.137,7.137,0,0,0-4.1-5.216,8.328,8.328,0,0,0-8.712,1.424,8.328,8.328,0,0,0-8.712-1.424,7.137,7.137,0,0,0-4.1,5.216,10.2,10.2,0,0,0,.056,4.268H84.463L79.111,48.919a1.472,1.472,0,0,0-2.843.046L67.8,82.456,63.667,68.589a1.473,1.473,0,0,0-1.411-1.052H42.945v-9.3a1.472,1.472,0,0,0-2.945,0v33.7a5.405,5.405,0,0,0,5.4,5.4h74.017a5.405,5.405,0,0,0,5.4-5.4V45.4a5.405,5.405,0,0,0-5.4-5.4ZM93.857,63.88a4.243,4.243,0,0,1,2.418-3.136,4.736,4.736,0,0,1,1.941-.421,6.756,6.756,0,0,1,4.477,2.121,1.475,1.475,0,0,0,1.093.488h.006a1.479,1.479,0,0,0,1.091-.483c.121-.133,3-3.228,6.422-1.705a4.244,4.244,0,0,1,2.418,3.136,9.056,9.056,0,0,1-2.415,7.556,26.207,26.207,0,0,1-7.042,5.455,1.023,1.023,0,0,1-.953,0,26.21,26.21,0,0,1-7.043-5.455,9.056,9.056,0,0,1-2.414-7.556Z" transform="translate(-22.4 -21.469)" fill="#cccfe3"/>
      <path id="Path_1183" data-name="Path 1183" d="M318.884,268.5a1.473,1.473,0,0,0,0,2.945h15.707a1.473,1.473,0,1,0,0-2.945Z" transform="translate(-245.347 -205.107)" fill="#cccfe3"/>
    </g>
    <g id="Group_1042" data-name="Group 1042" transform="translate(10020.722 -388.431)">
      <path id="Path_1155" data-name="Path 1155" d="M86.741,0C76.683,0,68.5,7.315,68.5,16.306V107.38c0,8.991,8.183,16.306,18.241,16.306v-3.624c-7.823,0-14.187-5.689-14.187-12.683V16.306c0-6.993,6.364-12.683,14.187-12.683Z" transform="translate(-68.5 0)" fill="#cccfe3"/>
    </g>
  </g>
</svg>
