<svg xmlns="http://www.w3.org/2000/svg" width="34" height="34" viewBox="0 0 34 34">
  <g id="Group_1003" data-name="Group 1003" transform="translate(-647 -289)">
    <circle id="Ellipse_347" data-name="Ellipse 347" cx="17" cy="17" r="17" transform="translate(647 289)" fill="#8592e5"/>
    <path id="Icon_ionic-ios-checkmark" data-name="Icon ionic-ios-checkmark" d="M33.551,14.289l-1.9-1.953a.408.408,0,0,0-.3-.13h0a.392.392,0,0,0-.3.13L17.881,25.6l-4.792-4.792a.417.417,0,0,0-.6,0l-1.921,1.921a.43.43,0,0,0,0,.615l6.043,6.043A1.911,1.911,0,0,0,17.87,30a2,2,0,0,0,1.252-.594h.011L33.562,14.9A.461.461,0,0,0,33.551,14.289Z" transform="translate(642.425 284.511)" fill="#fff"/>
  </g>
</svg>
