<svg xmlns="http://www.w3.org/2000/svg" width="32.007" height="29.292" viewBox="0 0 32.007 29.292">
  <g id="Sign_in_Icon" data-name="Sign in Icon" style="isolation: isolate">
    <path id="Path_1249" data-name="Path 1249" d="M8.972,26.851H6.409A3.757,3.757,0,0,1,2.564,23.19V6.1A3.757,3.757,0,0,1,6.409,2.441H8.972a1.252,1.252,0,0,0,1.282-1.221A1.252,1.252,0,0,0,8.972,0H6.409A6.269,6.269,0,0,0,0,6.1V23.19a6.269,6.269,0,0,0,6.409,6.1H8.972a1.222,1.222,0,1,0,0-2.441Z" transform="translate(0 0)" fill="#e9ecfe"/>
    <path id="Path_1250" data-name="Path 1250" d="M12,5.313,6.122,10.22a2.855,2.855,0,0,0,0,4.538L12,19.664a1.467,1.467,0,0,0,1.813,0,.95.95,0,0,0,0-1.513l-5.5-4.593h19.76a1.19,1.19,0,0,0,1.282-1.07,1.19,1.19,0,0,0-1.282-1.07H8.311l5.5-4.593a.95.95,0,0,0,0-1.513,1.467,1.467,0,0,0-1.813,0Z" transform="translate(2.654 2.157)" fill="#e9ecfe"/>
  </g>
</svg>
