<svg width="16" height="16" xmlns="http://www.w3.org/2000/svg" xmlns:xlink="http://www.w3.org/1999/xlink" xmlns:svgjs="http://svgjs.com/svgjs" fill="#fff"><svg xmlns="http://www.w3.org/2000/svg" width="16" height="16" viewBox="0.557 0.557 14.886 14.886"><path paint-order="stroke fill markers" fill-rule="evenodd" d="M1.022 8.93a.467.467 0 0 0-.465.466v.93c0 .256.21.465.465.465h3.256v-1.86H1.022zm9.769-4.419V.557H4.976a.696.696 0 0 0-.698.698V8.93H8V7.035c0-.416.503-.622.797-.329l2.779 2.806a.495.495 0 0 1 0 .698l-2.782 2.802a.466.466 0 0 1-.797-.328V10.79H4.278v3.954c0 .387.311.698.698.698h9.769a.696.696 0 0 0 .698-.698V5.21h-3.954a.7.7 0 0 1-.698-.698zm4.448-.901L12.393.76a.697.697 0 0 0-.494-.203h-.178V4.28h3.722V4.1a.695.695 0 0 0-.204-.491z"/></svg></svg>