<svg xmlns="http://www.w3.org/2000/svg" width="14.886" height="14.886" viewBox="0 0 14.886 14.886">
  <path id="file-import-solid" d="M.465,8.373A.467.467,0,0,0,0,8.838v.93a.467.467,0,0,0,.465.465H3.721V8.373Zm14.217-5.32L11.836.2a.7.7,0,0,0-.494-.2h-.177V3.721h3.721V3.544A.7.7,0,0,0,14.682,3.053Zm-4.448.9V0H4.419a.7.7,0,0,0-.7.7V8.373H7.443v-1.9a.466.466,0,0,1,.8-.329l2.779,2.806a.5.5,0,0,1,0,.7l-2.782,2.8a.466.466,0,0,1-.8-.329V10.234H3.721v3.954a.7.7,0,0,0,.7.7h9.769a.7.7,0,0,0,.7-.7V4.652H10.932A.7.7,0,0,1,10.234,3.954Z" fill="#fff"/>
</svg>
