<svg id="fi-rr-upload" xmlns="http://www.w3.org/2000/svg" width="22.597" height="22.597" viewBox="0 0 22.597 22.597">
  <path id="Path_704" data-name="Path 704" d="M20.714,16.942v3.766a.942.942,0,0,1-.942.942H2.825a.942.942,0,0,1-.942-.942V16.942A.942.942,0,0,0,.942,16h0A.942.942,0,0,0,0,16.942v3.766a2.825,2.825,0,0,0,2.825,2.825H19.772A2.825,2.825,0,0,0,22.6,20.708V16.942A.942.942,0,0,0,21.655,16h0A.942.942,0,0,0,20.714,16.942Z" transform="translate(0 -0.935)" fill="#fff"/>
  <path id="Path_705" data-name="Path 705" d="M17.906,5.143,13.588.824a2.831,2.831,0,0,0-3.994,0L5.276,5.143A.941.941,0,1,0,6.607,6.474l4.042-4.041V16.948a.942.942,0,0,0,1.883,0V2.432l4.042,4.042a.941.941,0,1,0,1.331-1.331Z" transform="translate(-0.292 0)" fill="#fff"/>
</svg>
